<?xml version="1.0" encoding="UTF-8" standalone="no"?>
<!DOCTYPE svg PUBLIC "-//W3C//DTD SVG 1.1//EN"
 "http://www.w3.org/Graphics/SVG/1.1/DTD/svg11.dtd">
<!-- Generated by graphviz version 2.40.1 (20161225.0304)
 -->
<!-- Title: G Pages: 1 -->
<svg width="585pt" height="1078pt"
 viewBox="0.00 0.00 585.00 1078.00" xmlns="http://www.w3.org/2000/svg" xmlns:xlink="http://www.w3.org/1999/xlink">
<g id="graph0" class="graph" transform="scale(1 1) rotate(0) translate(4 1074)">
<title>G</title>
<polygon fill="#ffffff" stroke="transparent" points="-4,4 -4,-1074 581,-1074 581,4 -4,4"/>
<g id="clust1" class="cluster">
<title>cluster_Global</title>
<path fill="none" stroke="#c0c0c0" d="M20,-8C20,-8 557,-8 557,-8 563,-8 569,-14 569,-20 569,-20 569,-1050 569,-1050 569,-1056 563,-1062 557,-1062 557,-1062 20,-1062 20,-1062 14,-1062 8,-1056 8,-1050 8,-1050 8,-20 8,-20 8,-14 14,-8 20,-8"/>
<text text-anchor="middle" x="288.5" y="-1049.2" font-family="Times,serif" font-size="11.00" fill="#c0c0c0">Global</text>
</g>
<g id="clust2" class="cluster">
<title>cluster_\Helpers</title>
<path fill="none" stroke="#c0c0c0" d="M28,-62C28,-62 549,-62 549,-62 555,-62 561,-68 561,-74 561,-74 561,-978 561,-978 561,-984 555,-990 549,-990 549,-990 28,-990 28,-990 22,-990 16,-984 16,-978 16,-978 16,-74 16,-74 16,-68 22,-62 28,-62"/>
<text text-anchor="middle" x="288.5" y="-977.2" font-family="Times,serif" font-size="11.00" fill="#c0c0c0">Helpers</text>
</g>
<g id="clust3" class="cluster">
<title>cluster_\Helpers\Calendar</title>
<path fill="none" stroke="#c0c0c0" d="M36,-332C36,-332 541,-332 541,-332 547,-332 553,-338 553,-344 553,-344 553,-950 553,-950 553,-956 547,-962 541,-962 541,-962 36,-962 36,-962 30,-962 24,-956 24,-950 24,-950 24,-344 24,-344 24,-338 30,-332 36,-332"/>
<text text-anchor="middle" x="288.5" y="-949.2" font-family="Times,serif" font-size="11.00" fill="#c0c0c0">Calendar</text>
</g>
<g id="clust4" class="cluster">
<title>cluster_\Helpers\Calendar\Month</title>
<path fill="none" stroke="#c0c0c0" d="M44,-628C44,-628 514,-628 514,-628 520,-628 526,-634 526,-640 526,-640 526,-878 526,-878 526,-884 520,-890 514,-890 514,-890 44,-890 44,-890 38,-890 32,-884 32,-878 32,-878 32,-640 32,-640 32,-634 38,-628 44,-628"/>
<text text-anchor="middle" x="279" y="-877.2" font-family="Times,serif" font-size="11.00" fill="#c0c0c0">Month</text>
</g>
<g id="clust5" class="cluster">
<title>cluster_\Helpers\Calendar\Month\Ru</title>
<path fill="none" stroke="#c0c0c0" d="M210,-790C210,-790 506,-790 506,-790 512,-790 518,-796 518,-802 518,-802 518,-850 518,-850 518,-856 512,-862 506,-862 506,-862 210,-862 210,-862 204,-862 198,-856 198,-850 198,-850 198,-802 198,-802 198,-796 204,-790 210,-790"/>
<text text-anchor="middle" x="358" y="-849.2" font-family="Times,serif" font-size="11.00" fill="#c0c0c0">Ru</text>
</g>
<g id="clust6" class="cluster">
<title>cluster_\Helpers\Calendar\Generator</title>
<path fill="none" stroke="#c0c0c0" d="M376,-340C376,-340 533,-340 533,-340 539,-340 545,-346 545,-352 545,-352 545,-454 545,-454 545,-460 539,-466 533,-466 533,-466 376,-466 376,-466 370,-466 364,-460 364,-454 364,-454 364,-352 364,-352 364,-346 370,-340 376,-340"/>
<text text-anchor="middle" x="454.5" y="-453.2" font-family="Times,serif" font-size="11.00" fill="#c0c0c0">Generator</text>
</g>
<g id="clust7" class="cluster">
<title>cluster_\Helpers\Str</title>
<path fill="none" stroke="#c0c0c0" d="M408.5,-116C408.5,-116 500.5,-116 500.5,-116 506.5,-116 512.5,-122 512.5,-128 512.5,-128 512.5,-312 512.5,-312 512.5,-318 506.5,-324 500.5,-324 500.5,-324 408.5,-324 408.5,-324 402.5,-324 396.5,-318 396.5,-312 396.5,-312 396.5,-128 396.5,-128 396.5,-122 402.5,-116 408.5,-116"/>
<text text-anchor="middle" x="454.5" y="-311.2" font-family="Times,serif" font-size="11.00" fill="#c0c0c0">Str</text>
</g>
<g id="clust8" class="cluster">
<title>cluster_\Helpers\Str\Ru</title>
<path fill="none" stroke="#c0c0c0" d="M416.5,-224C416.5,-224 492.5,-224 492.5,-224 498.5,-224 504.5,-230 504.5,-236 504.5,-236 504.5,-284 504.5,-284 504.5,-290 498.5,-296 492.5,-296 492.5,-296 416.5,-296 416.5,-296 410.5,-296 404.5,-290 404.5,-284 404.5,-284 404.5,-236 404.5,-236 404.5,-230 410.5,-224 416.5,-224"/>
<text text-anchor="middle" x="454.5" y="-283.2" font-family="Times,serif" font-size="11.00" fill="#c0c0c0">Ru</text>
</g>
<!-- \\Helpers\\Calendar\\Month\\Ru\\Formatter -->
<g id="node1" class="node">
<title>\\Helpers\\Calendar\\Month\\Ru\\Formatter</title>
<polygon fill="none" stroke="#000000" points="283,-834 206,-834 206,-798 283,-798 283,-834"/>
<text text-anchor="middle" x="244.5" y="-813.2" font-family="Courier,monospace" font-size="11.00" fill="#000000">Formatter</text>
</g>
<!-- \\Helpers\\Calendar\\Month\\Formatter -->
<g id="node4" class="node">
<title>\\Helpers\\Calendar\\Month\\Formatter</title>
<polygon fill="none" stroke="#000000" points="117,-807 40,-807 40,-771 117,-771 117,-807"/>
<text text-anchor="middle" x="78.5" y="-786.2" font-family="Courier,monospace" font-size="11.00" fill="#000000">Formatter</text>
</g>
<!-- \\Helpers\\Calendar\\Month\\Ru\\Formatter&#45;&gt;\\Helpers\\Calendar\\Month\\Formatter -->
<g id="edge3" class="edge">
<title>\\Helpers\\Calendar\\Month\\Ru\\Formatter&#45;&gt;\\Helpers\\Calendar\\Month\\Formatter</title>
<path fill="none" stroke="#000000" d="M205.999,-809.7378C182.513,-805.9178 152.2779,-801 127.1457,-796.9123"/>
<polygon fill="none" stroke="#000000" points="127.5116,-793.4258 117.0794,-795.275 126.3877,-800.3351 127.5116,-793.4258"/>
</g>
<!-- \\Helpers\\Calendar\\Month\\Ru\\FormatterShort -->
<g id="node2" class="node">
<title>\\Helpers\\Calendar\\Month\\Ru\\FormatterShort</title>
<polygon fill="none" stroke="#000000" points="510,-834 399,-834 399,-798 510,-798 510,-834"/>
<text text-anchor="middle" x="454.5" y="-813.2" font-family="Courier,monospace" font-size="11.00" fill="#000000">FormatterShort</text>
</g>
<!-- \\Helpers\\Calendar\\Month\\Ru\\FormatterShort&#45;&gt;\\Helpers\\Calendar\\Month\\Ru\\Formatter -->
<g id="edge4" class="edge">
<title>\\Helpers\\Calendar\\Month\\Ru\\FormatterShort&#45;&gt;\\Helpers\\Calendar\\Month\\Ru\\Formatter</title>
<path fill="none" stroke="#000000" d="M398.7752,-816C366.0242,-816 325.0016,-816 293.4923,-816"/>
<polygon fill="none" stroke="#000000" points="293.1969,-812.5001 283.1969,-816 293.1969,-819.5001 293.1969,-812.5001"/>
</g>
<!-- \\Helpers\\Calendar\\Month\\Dt -->
<g id="node3" class="node">
<title>\\Helpers\\Calendar\\Month\\Dt</title>
<polygon fill="none" stroke="#000000" points="481.5,-780 427.5,-780 427.5,-744 481.5,-744 481.5,-780"/>
<text text-anchor="middle" x="454.5" y="-759.2" font-family="Courier,monospace" font-size="11.00" fill="#000000">Dt</text>
</g>
<!-- \\Helpers\\Calendar\\Month\\FormatterShort -->
<g id="node5" class="node">
<title>\\Helpers\\Calendar\\Month\\FormatterShort</title>
<polygon fill="none" stroke="#000000" points="300,-780 189,-780 189,-744 300,-744 300,-780"/>
<text text-anchor="middle" x="244.5" y="-759.2" font-family="Courier,monospace" font-size="11.00" fill="#000000">FormatterShort</text>
</g>
<!-- \\Helpers\\Calendar\\Month\\FormatterShort&#45;&gt;\\Helpers\\Calendar\\Month\\Formatter -->
<g id="edge1" class="edge">
<title>\\Helpers\\Calendar\\Month\\FormatterShort&#45;&gt;\\Helpers\\Calendar\\Month\\Formatter</title>
<path fill="none" stroke="#000000" d="M188.7626,-771.0657C168.8026,-774.3122 146.4764,-777.9436 127.1619,-781.0851"/>
<polygon fill="none" stroke="#000000" points="126.3796,-777.6663 117.0712,-782.7264 127.5034,-784.5755 126.3796,-777.6663"/>
</g>
<!-- \\Helpers\\Calendar\\Month\\Fabric -->
<g id="node6" class="node">
<title>\\Helpers\\Calendar\\Month\\Fabric</title>
<polygon fill="none" stroke="#000000" points="483,-726 426,-726 426,-690 483,-690 483,-726"/>
<text text-anchor="middle" x="454.5" y="-705.2" font-family="Courier,monospace" font-size="11.00" fill="#000000">Fabric</text>
</g>
<!-- \\Helpers\\Calendar\\Month\\Is -->
<g id="node7" class="node">
<title>\\Helpers\\Calendar\\Month\\Is</title>
<polygon fill="none" stroke="#000000" points="481.5,-672 427.5,-672 427.5,-636 481.5,-636 481.5,-672"/>
<text text-anchor="middle" x="454.5" y="-651.2" font-family="Courier,monospace" font-size="11.00" fill="#000000">Is</text>
</g>
<!-- \\Helpers\\Calendar\\Generator\\MonthWorkdaysGenerator -->
<g id="node8" class="node">
<title>\\Helpers\\Calendar\\Generator\\MonthWorkdaysGenerator</title>
<polygon fill="none" stroke="#000000" points="537,-438 372,-438 372,-402 537,-402 537,-438"/>
<text text-anchor="middle" x="454.5" y="-417.2" font-family="Courier,monospace" font-size="11.00" fill="#000000">MonthWorkdaysGenerator</text>
</g>
<!-- \\Helpers\\Calendar\\GeneratorIf -->
<g id="node14" class="node">
<title>\\Helpers\\Calendar\\GeneratorIf</title>
<polygon fill="none" stroke="#000000" points="290,-411 199,-411 199,-375 290,-375 290,-411"/>
<text text-anchor="middle" x="244.5" y="-390.2" font-family="Courier,monospace" font-size="11.00" fill="#000000">GeneratorIf</text>
</g>
<!-- \\Helpers\\Calendar\\Generator\\MonthWorkdaysGenerator&#45;&gt;\\Helpers\\Calendar\\GeneratorIf -->
<g id="edge5" class="edge">
<title>\\Helpers\\Calendar\\Generator\\MonthWorkdaysGenerator&#45;&gt;\\Helpers\\Calendar\\GeneratorIf</title>
<path fill="none" stroke="#000000" stroke-dasharray="1,5" d="M371.8039,-409.3676C347.8253,-406.2847 322.2198,-402.9925 300.3072,-400.1752"/>
<polygon fill="none" stroke="#000000" points="300.56,-396.679 290.1953,-398.8751 299.6673,-403.6218 300.56,-396.679"/>
</g>
<!-- \\Helpers\\Calendar\\Generator\\PeriodDtListGenerator -->
<g id="node9" class="node">
<title>\\Helpers\\Calendar\\Generator\\PeriodDtListGenerator</title>
<polygon fill="none" stroke="#000000" points="533.5,-384 375.5,-384 375.5,-348 533.5,-348 533.5,-384"/>
<text text-anchor="middle" x="454.5" y="-363.2" font-family="Courier,monospace" font-size="11.00" fill="#000000">PeriodDtListGenerator</text>
</g>
<!-- \\Helpers\\Calendar\\Generator\\PeriodDtListGenerator&#45;&gt;\\Helpers\\Calendar\\GeneratorIf -->
<g id="edge6" class="edge">
<title>\\Helpers\\Calendar\\Generator\\PeriodDtListGenerator&#45;&gt;\\Helpers\\Calendar\\GeneratorIf</title>
<path fill="none" stroke="#000000" stroke-dasharray="1,5" d="M375.4072,-376.1691C350.29,-379.3984 323.063,-382.899 299.9784,-385.8671"/>
<polygon fill="none" stroke="#000000" points="299.4944,-382.4004 290.0224,-387.1471 300.3871,-389.3432 299.4944,-382.4004"/>
</g>
<!-- \\Helpers\\Calendar\\Year -->
<g id="node10" class="node">
<title>\\Helpers\\Calendar\\Year</title>
<polygon fill="none" stroke="#000000" points="481.5,-618 427.5,-618 427.5,-582 481.5,-582 481.5,-618"/>
<text text-anchor="middle" x="454.5" y="-597.2" font-family="Courier,monospace" font-size="11.00" fill="#000000">Year</text>
</g>
<!-- \\Helpers\\Calendar\\Period -->
<g id="node11" class="node">
<title>\\Helpers\\Calendar\\Period</title>
<polygon fill="none" stroke="#000000" points="483,-564 426,-564 426,-528 483,-528 483,-564"/>
<text text-anchor="middle" x="454.5" y="-543.2" font-family="Courier,monospace" font-size="11.00" fill="#000000">Period</text>
</g>
<!-- \\Helpers\\Calendar\\Month -->
<g id="node12" class="node">
<title>\\Helpers\\Calendar\\Month</title>
<polygon fill="none" stroke="#000000" points="481.5,-510 427.5,-510 427.5,-474 481.5,-474 481.5,-510"/>
<text text-anchor="middle" x="454.5" y="-489.2" font-family="Courier,monospace" font-size="11.00" fill="#000000">Month</text>
</g>
<!-- \\Helpers\\Calendar\\Date -->
<g id="node13" class="node">
<title>\\Helpers\\Calendar\\Date</title>
<polygon fill="none" stroke="#000000" points="481.5,-934 427.5,-934 427.5,-898 481.5,-898 481.5,-934"/>
<text text-anchor="middle" x="454.5" y="-913.2" font-family="Courier,monospace" font-size="11.00" fill="#000000">Date</text>
</g>
<!-- DateTime -->
<g id="node20" class="node">
<title>DateTime</title>
<ellipse fill="none" stroke="#000000" cx="244.5" cy="-1016" rx="46.2923" ry="18"/>
<text text-anchor="middle" x="244.5" y="-1012.3" font-family="Times,serif" font-size="14.00" fill="#c0c0c0">DateTime</text>
</g>
<!-- \\Helpers\\Calendar\\Date&#45;&gt;DateTime -->
<g id="edge2" class="edge">
<title>\\Helpers\\Calendar\\Date&#45;&gt;DateTime</title>
<path fill="none" stroke="#000000" d="M427.4761,-928.8685C390.7095,-946.3764 324.7209,-977.7996 282.8458,-997.7401"/>
<polygon fill="none" stroke="#000000" points="281.3054,-994.597 273.7816,-1002.0564 284.315,-1000.917 281.3054,-994.597"/>
</g>
<!-- \\Helpers\\Str\\Ru\\Pluralizer -->
<g id="node15" class="node">
<title>\\Helpers\\Str\\Ru\\Pluralizer</title>
<polygon fill="none" stroke="#000000" points="496.5,-268 412.5,-268 412.5,-232 496.5,-232 496.5,-268"/>
<text text-anchor="middle" x="454.5" y="-247.2" font-family="Courier,monospace" font-size="11.00" fill="#000000">Pluralizer</text>
</g>
<!-- \\Helpers\\Str\\Random -->
<g id="node16" class="node">
<title>\\Helpers\\Str\\Random</title>
<polygon fill="none" stroke="#000000" points="483,-214 426,-214 426,-178 483,-178 483,-214"/>
<text text-anchor="middle" x="454.5" y="-193.2" font-family="Courier,monospace" font-size="11.00" fill="#000000">Random</text>
</g>
<!-- \\Helpers\\Str\\Ru -->
<g id="node17" class="node">
<title>\\Helpers\\Str\\Ru</title>
<polygon fill="none" stroke="#000000" points="481.5,-160 427.5,-160 427.5,-124 481.5,-124 481.5,-160"/>
<text text-anchor="middle" x="454.5" y="-139.2" font-family="Courier,monospace" font-size="11.00" fill="#000000">Ru</text>
</g>
<!-- \\Helpers\\Str -->
<g id="node18" class="node">
<title>\\Helpers\\Str</title>
<polygon fill="none" stroke="#000000" points="481.5,-106 427.5,-106 427.5,-70 481.5,-70 481.5,-106"/>
<text text-anchor="middle" x="454.5" y="-85.2" font-family="Courier,monospace" font-size="11.00" fill="#000000">Str</text>
</g>
<!-- \\Week -->
<g id="node19" class="node">
<title>\\Week</title>
<polygon fill="none" stroke="#000000" points="481.5,-52 427.5,-52 427.5,-16 481.5,-16 481.5,-52"/>
<text text-anchor="middle" x="454.5" y="-31.2" font-family="Courier,monospace" font-size="11.00" fill="#000000">Week</text>
</g>
</g>
</svg>
