<?xml version="1.0" encoding="UTF-8" standalone="no"?>
<!DOCTYPE svg PUBLIC "-//W3C//DTD SVG 1.1//EN"
 "http://www.w3.org/Graphics/SVG/1.1/DTD/svg11.dtd">
<!-- Generated by graphviz version 2.40.1 (20161225.0304)
 -->
<!-- Title: G Pages: 1 -->
<svg width="375pt" height="1960pt"
 viewBox="0.00 0.00 374.65 1960.00" xmlns="http://www.w3.org/2000/svg" xmlns:xlink="http://www.w3.org/1999/xlink">
<g id="graph0" class="graph" transform="scale(1 1) rotate(0) translate(4 1956)">
<title>G</title>
<polygon fill="#ffffff" stroke="transparent" points="-4,4 -4,-1956 370.6459,-1956 370.6459,4 -4,4"/>
<g id="clust1" class="cluster">
<title>cluster_Global</title>
<path fill="none" stroke="#c0c0c0" d="M20,-8C20,-8 346.6459,-8 346.6459,-8 352.6459,-8 358.6459,-14 358.6459,-20 358.6459,-20 358.6459,-1932 358.6459,-1932 358.6459,-1938 352.6459,-1944 346.6459,-1944 346.6459,-1944 20,-1944 20,-1944 14,-1944 8,-1938 8,-1932 8,-1932 8,-20 8,-20 8,-14 14,-8 20,-8"/>
<text text-anchor="middle" x="183.323" y="-1931.2" font-family="Times,serif" font-size="11.00" fill="#c0c0c0">Global</text>
</g>
<g id="clust2" class="cluster">
<title>cluster_\Helpers</title>
<path fill="none" stroke="#c0c0c0" d="M28,-838C28,-838 333.1459,-838 333.1459,-838 339.1459,-838 345.1459,-844 345.1459,-850 345.1459,-850 345.1459,-1680 345.1459,-1680 345.1459,-1686 339.1459,-1692 333.1459,-1692 333.1459,-1692 28,-1692 28,-1692 22,-1692 16,-1686 16,-1680 16,-1680 16,-850 16,-850 16,-844 22,-838 28,-838"/>
<text text-anchor="middle" x="180.573" y="-1679.2" font-family="Times,serif" font-size="11.00" fill="#c0c0c0">Helpers</text>
</g>
<g id="clust3" class="cluster">
<title>cluster_\Helpers\Calendar</title>
<path fill="none" stroke="#c0c0c0" d="M36,-1080C36,-1080 325.1459,-1080 325.1459,-1080 331.1459,-1080 337.1459,-1086 337.1459,-1092 337.1459,-1092 337.1459,-1652 337.1459,-1652 337.1459,-1658 331.1459,-1664 325.1459,-1664 325.1459,-1664 36,-1664 36,-1664 30,-1664 24,-1658 24,-1652 24,-1652 24,-1092 24,-1092 24,-1086 30,-1080 36,-1080"/>
<text text-anchor="middle" x="180.573" y="-1651.2" font-family="Times,serif" font-size="11.00" fill="#c0c0c0">Calendar</text>
</g>
<g id="clust4" class="cluster">
<title>cluster_\Helpers\Calendar\Generator</title>
<path fill="none" stroke="#c0c0c0" d="M234.1459,-1564C234.1459,-1564 297.1459,-1564 297.1459,-1564 303.1459,-1564 309.1459,-1570 309.1459,-1576 309.1459,-1576 309.1459,-1624 309.1459,-1624 309.1459,-1630 303.1459,-1636 297.1459,-1636 297.1459,-1636 234.1459,-1636 234.1459,-1636 228.1459,-1636 222.1459,-1630 222.1459,-1624 222.1459,-1624 222.1459,-1576 222.1459,-1576 222.1459,-1570 228.1459,-1564 234.1459,-1564"/>
<text text-anchor="middle" x="265.6459" y="-1623.2" font-family="Times,serif" font-size="11.00" fill="#c0c0c0">Generator</text>
</g>
<g id="clust5" class="cluster">
<title>cluster_\Helpers\Calendar\Month</title>
<path fill="none" stroke="#c0c0c0" d="M44,-1268C44,-1268 317.1459,-1268 317.1459,-1268 323.1459,-1268 329.1459,-1274 329.1459,-1280 329.1459,-1280 329.1459,-1544 329.1459,-1544 329.1459,-1550 323.1459,-1556 317.1459,-1556 317.1459,-1556 44,-1556 44,-1556 38,-1556 32,-1550 32,-1544 32,-1544 32,-1280 32,-1280 32,-1274 38,-1268 44,-1268"/>
<text text-anchor="middle" x="180.573" y="-1543.2" font-family="Times,serif" font-size="11.00" fill="#c0c0c0">Month</text>
</g>
<g id="clust6" class="cluster">
<title>cluster_\Helpers\Calendar\ru</title>
<path fill="none" stroke="#c0c0c0" d="M242.6459,-1188C242.6459,-1188 288.6459,-1188 288.6459,-1188 294.6459,-1188 300.6459,-1194 300.6459,-1200 300.6459,-1200 300.6459,-1248 300.6459,-1248 300.6459,-1254 294.6459,-1260 288.6459,-1260 288.6459,-1260 242.6459,-1260 242.6459,-1260 236.6459,-1260 230.6459,-1254 230.6459,-1248 230.6459,-1248 230.6459,-1200 230.6459,-1200 230.6459,-1194 236.6459,-1188 242.6459,-1188"/>
<text text-anchor="middle" x="265.6459" y="-1247.2" font-family="Times,serif" font-size="11.00" fill="#c0c0c0">ru</text>
</g>
<g id="clust7" class="cluster">
<title>cluster_\Helpers\Str</title>
<path fill="none" stroke="#c0c0c0" d="M220.6459,-892C220.6459,-892 310.6459,-892 310.6459,-892 316.6459,-892 322.6459,-898 322.6459,-904 322.6459,-904 322.6459,-1060 322.6459,-1060 322.6459,-1066 316.6459,-1072 310.6459,-1072 310.6459,-1072 220.6459,-1072 220.6459,-1072 214.6459,-1072 208.6459,-1066 208.6459,-1060 208.6459,-1060 208.6459,-904 208.6459,-904 208.6459,-898 214.6459,-892 220.6459,-892"/>
<text text-anchor="middle" x="265.6459" y="-1059.2" font-family="Times,serif" font-size="11.00" fill="#c0c0c0">Str</text>
</g>
<g id="clust8" class="cluster">
<title>cluster_\KsUtils</title>
<path fill="none" stroke="#c0c0c0" d="M46,-392C46,-392 338.6459,-392 338.6459,-392 344.6459,-392 350.6459,-398 350.6459,-404 350.6459,-404 350.6459,-774 350.6459,-774 350.6459,-780 344.6459,-786 338.6459,-786 338.6459,-786 46,-786 46,-786 40,-786 34,-780 34,-774 34,-774 34,-404 34,-404 34,-398 40,-392 46,-392"/>
<text text-anchor="middle" x="192.323" y="-773.2" font-family="Times,serif" font-size="11.00" fill="#c0c0c0">KsUtils</text>
</g>
<g id="clust9" class="cluster">
<title>cluster_\KsUtils\File</title>
<path fill="none" stroke="#c0c0c0" d="M54,-444C54,-444 330.6459,-444 330.6459,-444 336.6459,-444 342.6459,-450 342.6459,-456 342.6459,-456 342.6459,-746 342.6459,-746 342.6459,-752 336.6459,-758 330.6459,-758 330.6459,-758 54,-758 54,-758 48,-758 42,-752 42,-746 42,-746 42,-456 42,-456 42,-450 48,-444 54,-444"/>
<text text-anchor="middle" x="192.323" y="-745.2" font-family="Times,serif" font-size="11.00" fill="#c0c0c0">File</text>
</g>
<g id="clust10" class="cluster">
<title>cluster_\KsUtils\File\Filter</title>
<path fill="none" stroke="#c0c0c0" d="M231.1459,-452C231.1459,-452 300.1459,-452 300.1459,-452 306.1459,-452 312.1459,-458 312.1459,-464 312.1459,-464 312.1459,-512 312.1459,-512 312.1459,-518 306.1459,-524 300.1459,-524 300.1459,-524 231.1459,-524 231.1459,-524 225.1459,-524 219.1459,-518 219.1459,-512 219.1459,-512 219.1459,-464 219.1459,-464 219.1459,-458 225.1459,-452 231.1459,-452"/>
<text text-anchor="middle" x="265.6459" y="-511.2" font-family="Times,serif" font-size="11.00" fill="#c0c0c0">Filter</text>
</g>
<g id="clust11" class="cluster">
<title>cluster_\kfilin</title>
<path fill="none" stroke="#c0c0c0" d="M29,-1700C29,-1700 128,-1700 128,-1700 134,-1700 140,-1706 140,-1712 140,-1712 140,-1904 140,-1904 140,-1910 134,-1916 128,-1916 128,-1916 29,-1916 29,-1916 23,-1916 17,-1910 17,-1904 17,-1904 17,-1712 17,-1712 17,-1706 23,-1700 29,-1700"/>
<text text-anchor="middle" x="78.5" y="-1903.2" font-family="Times,serif" font-size="11.00" fill="#c0c0c0">kfilin</text>
</g>
<g id="clust12" class="cluster">
<title>cluster_\kfilin\Calendar</title>
<path fill="none" stroke="#c0c0c0" d="M37,-1708C37,-1708 120,-1708 120,-1708 126,-1708 132,-1714 132,-1720 132,-1720 132,-1876 132,-1876 132,-1882 126,-1888 120,-1888 120,-1888 37,-1888 37,-1888 31,-1888 25,-1882 25,-1876 25,-1876 25,-1720 25,-1720 25,-1714 31,-1708 37,-1708"/>
<text text-anchor="middle" x="78.5" y="-1875.2" font-family="Times,serif" font-size="11.00" fill="#c0c0c0">Calendar</text>
</g>
<g id="clust13" class="cluster">
<title>cluster_\app</title>
<path fill="none" stroke="#c0c0c0" d="M234.6459,-276C234.6459,-276 296.6459,-276 296.6459,-276 302.6459,-276 308.6459,-282 308.6459,-288 308.6459,-288 308.6459,-372 308.6459,-372 308.6459,-378 302.6459,-384 296.6459,-384 296.6459,-384 234.6459,-384 234.6459,-384 228.6459,-384 222.6459,-378 222.6459,-372 222.6459,-372 222.6459,-288 222.6459,-288 222.6459,-282 228.6459,-276 234.6459,-276"/>
<text text-anchor="middle" x="265.6459" y="-371.2" font-family="Times,serif" font-size="11.00" fill="#c0c0c0">app</text>
</g>
<g id="clust14" class="cluster">
<title>cluster_\app\models</title>
<path fill="none" stroke="#c0c0c0" d="M242.6459,-284C242.6459,-284 288.6459,-284 288.6459,-284 294.6459,-284 300.6459,-290 300.6459,-296 300.6459,-296 300.6459,-344 300.6459,-344 300.6459,-350 294.6459,-356 288.6459,-356 288.6459,-356 242.6459,-356 242.6459,-356 236.6459,-356 230.6459,-350 230.6459,-344 230.6459,-344 230.6459,-296 230.6459,-296 230.6459,-290 236.6459,-284 242.6459,-284"/>
<text text-anchor="middle" x="265.6459" y="-343.2" font-family="Times,serif" font-size="11.00" fill="#c0c0c0">models</text>
</g>
<!-- \\Helpers\\Calendar\\Generator\\Workdays -->
<g id="node1" class="node">
<title>\\Helpers\\Calendar\\Generator\\Workdays</title>
<polygon fill="none" stroke="#000000" points="301.1459,-1608 230.1459,-1608 230.1459,-1572 301.1459,-1572 301.1459,-1608"/>
<text text-anchor="middle" x="265.6459" y="-1587.2" font-family="Courier,monospace" font-size="11.00" fill="#000000">Workdays</text>
</g>
<!-- \\kfilin\\Calendar\\GeneratorIf -->
<g id="node25" class="node">
<title>\\kfilin\\Calendar\\GeneratorIf</title>
<polygon fill="none" stroke="#000000" points="124,-1752 33,-1752 33,-1716 124,-1716 124,-1752"/>
<text text-anchor="middle" x="78.5" y="-1731.2" font-family="Courier,monospace" font-size="11.00" fill="#000000">GeneratorIf</text>
</g>
<!-- \\Helpers\\Calendar\\Generator\\Workdays&#45;&gt;\\kfilin\\Calendar\\GeneratorIf -->
<g id="edge1" class="edge">
<title>\\Helpers\\Calendar\\Generator\\Workdays&#45;&gt;\\kfilin\\Calendar\\GeneratorIf</title>
<path fill="none" stroke="#000000" stroke-dasharray="1,5" d="M241.9437,-1608.2377C208.4765,-1633.9892 147.3048,-1681.058 110.0337,-1709.7363"/>
<polygon fill="none" stroke="#000000" points="107.8007,-1707.0382 102.0097,-1715.9104 112.0695,-1712.586 107.8007,-1707.0382"/>
</g>
<!-- \\Helpers\\Calendar\\Month\\Dt -->
<g id="node2" class="node">
<title>\\Helpers\\Calendar\\Month\\Dt</title>
<polygon fill="none" stroke="#000000" points="292.6459,-1528 238.6459,-1528 238.6459,-1492 292.6459,-1492 292.6459,-1528"/>
<text text-anchor="middle" x="265.6459" y="-1507.2" font-family="Courier,monospace" font-size="11.00" fill="#000000">Dt</text>
</g>
<!-- \\Helpers\\Calendar\\Month\\Formatter -->
<g id="node3" class="node">
<title>\\Helpers\\Calendar\\Month\\Formatter</title>
<polygon fill="none" stroke="#000000" points="117,-1474 40,-1474 40,-1438 117,-1438 117,-1474"/>
<text text-anchor="middle" x="78.5" y="-1453.2" font-family="Courier,monospace" font-size="11.00" fill="#000000">Formatter</text>
</g>
<!-- \\Helpers\\Calendar\\Month\\FormatterShort -->
<g id="node4" class="node">
<title>\\Helpers\\Calendar\\Month\\FormatterShort</title>
<polygon fill="none" stroke="#000000" points="321.1459,-1474 210.1459,-1474 210.1459,-1438 321.1459,-1438 321.1459,-1474"/>
<text text-anchor="middle" x="265.6459" y="-1453.2" font-family="Courier,monospace" font-size="11.00" fill="#000000">FormatterShort</text>
</g>
<!-- \\Helpers\\Calendar\\Month\\FormatterShort&#45;&gt;\\Helpers\\Calendar\\Month\\Formatter -->
<g id="edge3" class="edge">
<title>\\Helpers\\Calendar\\Month\\FormatterShort&#45;&gt;\\Helpers\\Calendar\\Month\\Formatter</title>
<path fill="none" stroke="#000000" d="M210.0027,-1456C183.6766,-1456 152.5291,-1456 127.1572,-1456"/>
<polygon fill="none" stroke="#000000" points="127.0268,-1452.5001 117.0268,-1456 127.0268,-1459.5001 127.0268,-1452.5001"/>
</g>
<!-- \\Helpers\\Calendar\\Month\\Fabric -->
<g id="node5" class="node">
<title>\\Helpers\\Calendar\\Month\\Fabric</title>
<polygon fill="none" stroke="#000000" points="294.1459,-1420 237.1459,-1420 237.1459,-1384 294.1459,-1384 294.1459,-1420"/>
<text text-anchor="middle" x="265.6459" y="-1399.2" font-family="Courier,monospace" font-size="11.00" fill="#000000">Fabric</text>
</g>
<!-- \\Helpers\\Calendar\\Month\\Week -->
<g id="node6" class="node">
<title>\\Helpers\\Calendar\\Month\\Week</title>
<polygon fill="none" stroke="#000000" points="292.6459,-1366 238.6459,-1366 238.6459,-1330 292.6459,-1330 292.6459,-1366"/>
<text text-anchor="middle" x="265.6459" y="-1345.2" font-family="Courier,monospace" font-size="11.00" fill="#000000">Week</text>
</g>
<!-- \\Helpers\\Calendar\\Month\\Is -->
<g id="node7" class="node">
<title>\\Helpers\\Calendar\\Month\\Is</title>
<polygon fill="none" stroke="#000000" points="292.6459,-1312 238.6459,-1312 238.6459,-1276 292.6459,-1276 292.6459,-1312"/>
<text text-anchor="middle" x="265.6459" y="-1291.2" font-family="Courier,monospace" font-size="11.00" fill="#000000">Is</text>
</g>
<!-- \\Helpers\\Calendar\\ru\\Month -->
<g id="node8" class="node">
<title>\\Helpers\\Calendar\\ru\\Month</title>
<polygon fill="none" stroke="#000000" points="292.6459,-1232 238.6459,-1232 238.6459,-1196 292.6459,-1196 292.6459,-1232"/>
<text text-anchor="middle" x="265.6459" y="-1211.2" font-family="Courier,monospace" font-size="11.00" fill="#000000">Month</text>
</g>
<!-- \\Helpers\\Calendar\\Month -->
<g id="node11" class="node">
<title>\\Helpers\\Calendar\\Month</title>
<polygon fill="none" stroke="#000000" points="105.5,-1232 51.5,-1232 51.5,-1196 105.5,-1196 105.5,-1232"/>
<text text-anchor="middle" x="78.5" y="-1211.2" font-family="Courier,monospace" font-size="11.00" fill="#000000">Month</text>
</g>
<!-- \\Helpers\\Calendar\\ru\\Month&#45;&gt;\\Helpers\\Calendar\\Month -->
<g id="edge6" class="edge">
<title>\\Helpers\\Calendar\\ru\\Month&#45;&gt;\\Helpers\\Calendar\\Month</title>
<path fill="none" stroke="#000000" d="M238.4333,-1214C206.1395,-1214 152.1198,-1214 115.9099,-1214"/>
<polygon fill="none" stroke="#000000" points="115.7455,-1210.5001 105.7455,-1214 115.7454,-1217.5001 115.7455,-1210.5001"/>
</g>
<!-- \\Helpers\\Calendar\\Year -->
<g id="node9" class="node">
<title>\\Helpers\\Calendar\\Year</title>
<polygon fill="none" stroke="#000000" points="292.6459,-1178 238.6459,-1178 238.6459,-1142 292.6459,-1142 292.6459,-1178"/>
<text text-anchor="middle" x="265.6459" y="-1157.2" font-family="Courier,monospace" font-size="11.00" fill="#000000">Year</text>
</g>
<!-- \\Helpers\\Calendar\\Now -->
<g id="node10" class="node">
<title>\\Helpers\\Calendar\\Now</title>
<polygon fill="none" stroke="#000000" points="292.6459,-1124 238.6459,-1124 238.6459,-1088 292.6459,-1088 292.6459,-1124"/>
<text text-anchor="middle" x="265.6459" y="-1103.2" font-family="Courier,monospace" font-size="11.00" fill="#000000">Now</text>
</g>
<!-- \\Helpers\\Str\\Random -->
<g id="node12" class="node">
<title>\\Helpers\\Str\\Random</title>
<polygon fill="none" stroke="#000000" points="294.1459,-1044 237.1459,-1044 237.1459,-1008 294.1459,-1008 294.1459,-1044"/>
<text text-anchor="middle" x="265.6459" y="-1023.2" font-family="Courier,monospace" font-size="11.00" fill="#000000">Random</text>
</g>
<!-- \\Helpers\\Str\\Ru -->
<g id="node13" class="node">
<title>\\Helpers\\Str\\Ru</title>
<polygon fill="none" stroke="#000000" points="292.6459,-990 238.6459,-990 238.6459,-954 292.6459,-954 292.6459,-990"/>
<text text-anchor="middle" x="265.6459" y="-969.2" font-family="Courier,monospace" font-size="11.00" fill="#000000">Ru</text>
</g>
<!-- \\Helpers\\Str\\RuPluralizer -->
<g id="node14" class="node">
<title>\\Helpers\\Str\\RuPluralizer</title>
<polygon fill="none" stroke="#000000" points="314.6459,-936 216.6459,-936 216.6459,-900 314.6459,-900 314.6459,-936"/>
<text text-anchor="middle" x="265.6459" y="-915.2" font-family="Courier,monospace" font-size="11.00" fill="#000000">RuPluralizer</text>
</g>
<!-- \\Helpers\\Str -->
<g id="node15" class="node">
<title>\\Helpers\\Str</title>
<polygon fill="none" stroke="#000000" points="292.6459,-882 238.6459,-882 238.6459,-846 292.6459,-846 292.6459,-882"/>
<text text-anchor="middle" x="265.6459" y="-861.2" font-family="Courier,monospace" font-size="11.00" fill="#000000">Str</text>
</g>
<!-- \\KsUtils\\File\\Filter\\Extension -->
<g id="node16" class="node">
<title>\\KsUtils\\File\\Filter\\Extension</title>
<polygon fill="none" stroke="#000000" points="304.1459,-496 227.1459,-496 227.1459,-460 304.1459,-460 304.1459,-496"/>
<text text-anchor="middle" x="265.6459" y="-475.2" font-family="Courier,monospace" font-size="11.00" fill="#000000">Extension</text>
</g>
<!-- \\KsUtils\\File\\Filter -->
<g id="node21" class="node">
<title>\\KsUtils\\File\\Filter</title>
<polygon fill="none" stroke="#000000" points="107,-496 50,-496 50,-460 107,-460 107,-496"/>
<text text-anchor="middle" x="78.5" y="-475.2" font-family="Courier,monospace" font-size="11.00" fill="#000000">Filter</text>
</g>
<!-- \\KsUtils\\File\\Filter\\Extension&#45;&gt;\\KsUtils\\File\\Filter -->
<g id="edge2" class="edge">
<title>\\KsUtils\\File\\Filter\\Extension&#45;&gt;\\KsUtils\\File\\Filter</title>
<path fill="none" stroke="#000000" stroke-dasharray="1,5" d="M226.8692,-478C194.8381,-478 149.5805,-478 117.4907,-478"/>
<polygon fill="none" stroke="#000000" points="117.1511,-474.5001 107.1511,-478 117.151,-481.5001 117.1511,-474.5001"/>
</g>
<!-- \\KsUtils\\File\\Zip -->
<g id="node17" class="node">
<title>\\KsUtils\\File\\Zip</title>
<polygon fill="none" stroke="#000000" points="292.6459,-676 238.6459,-676 238.6459,-640 292.6459,-640 292.6459,-676"/>
<text text-anchor="middle" x="265.6459" y="-655.2" font-family="Courier,monospace" font-size="11.00" fill="#000000">Zip</text>
</g>
<!-- \\KsUtils\\File\\Dir -->
<g id="node18" class="node">
<title>\\KsUtils\\File\\Dir</title>
<polygon fill="none" stroke="#000000" points="292.6459,-622 238.6459,-622 238.6459,-586 292.6459,-586 292.6459,-622"/>
<text text-anchor="middle" x="265.6459" y="-601.2" font-family="Courier,monospace" font-size="11.00" fill="#000000">Dir</text>
</g>
<!-- \\KsUtils\\File\\OperationException -->
<g id="node19" class="node">
<title>\\KsUtils\\File\\OperationException</title>
<polygon fill="none" stroke="#000000" points="334.6459,-568 196.6459,-568 196.6459,-532 334.6459,-532 334.6459,-568"/>
<text text-anchor="middle" x="265.6459" y="-547.2" font-family="Courier,monospace" font-size="11.00" fill="#000000">OperationException</text>
</g>
<!-- Exception -->
<g id="node33" class="node">
<title>Exception</title>
<ellipse fill="none" stroke="#000000" cx="78.5" cy="-812" rx="46.2923" ry="18"/>
<text text-anchor="middle" x="78.5" y="-808.3" font-family="Times,serif" font-size="14.00" fill="#c0c0c0">Exception</text>
</g>
<!-- \\KsUtils\\File\\OperationException&#45;&gt;Exception -->
<g id="edge4" class="edge">
<title>\\KsUtils\\File\\OperationException&#45;&gt;Exception</title>
<path fill="none" stroke="#000000" d="M207.3303,-568.0235C203.4211,-570.6286 199.7939,-573.6036 196.6459,-577 138.191,-640.0662 188.0309,-690.6743 140,-762 132.6009,-772.9876 122.0701,-782.7819 111.8092,-790.7267"/>
<polygon fill="none" stroke="#000000" points="109.6847,-787.9445 103.703,-796.6892 113.8324,-793.5834 109.6847,-787.9445"/>
</g>
<!-- \\KsUtils\\File\\ZipException -->
<g id="node20" class="node">
<title>\\KsUtils\\File\\ZipException</title>
<polygon fill="none" stroke="#000000" points="314.6459,-730 216.6459,-730 216.6459,-694 314.6459,-694 314.6459,-730"/>
<text text-anchor="middle" x="265.6459" y="-709.2" font-family="Courier,monospace" font-size="11.00" fill="#000000">ZipException</text>
</g>
<!-- \\KsUtils\\File\\ZipException&#45;&gt;Exception -->
<g id="edge7" class="edge">
<title>\\KsUtils\\File\\ZipException&#45;&gt;Exception</title>
<path fill="none" stroke="#000000" d="M231.7552,-730.1092C198.7309,-747.7555 148.685,-774.4972 114.847,-792.5783"/>
<polygon fill="none" stroke="#000000" points="112.9307,-789.6338 105.7603,-797.4336 116.2297,-795.8077 112.9307,-789.6338"/>
</g>
<!-- \\KsUtils\\File -->
<g id="node22" class="node">
<title>\\KsUtils\\File</title>
<polygon fill="none" stroke="#000000" points="292.6459,-436 238.6459,-436 238.6459,-400 292.6459,-400 292.6459,-436"/>
<text text-anchor="middle" x="265.6459" y="-415.2" font-family="Courier,monospace" font-size="11.00" fill="#000000">File</text>
</g>
<!-- \\kfilin\\Calendar\\Period -->
<g id="node23" class="node">
<title>\\kfilin\\Calendar\\Period</title>
<polygon fill="none" stroke="#000000" points="107,-1860 50,-1860 50,-1824 107,-1824 107,-1860"/>
<text text-anchor="middle" x="78.5" y="-1839.2" font-family="Courier,monospace" font-size="11.00" fill="#000000">Period</text>
</g>
<!-- \\kfilin\\Calendar\\Date -->
<g id="node24" class="node">
<title>\\kfilin\\Calendar\\Date</title>
<polygon fill="none" stroke="#000000" points="105.5,-1806 51.5,-1806 51.5,-1770 105.5,-1770 105.5,-1806"/>
<text text-anchor="middle" x="78.5" y="-1785.2" font-family="Courier,monospace" font-size="11.00" fill="#000000">Date</text>
</g>
<!-- \\app\\models\\Utils -->
<g id="node26" class="node">
<title>\\app\\models\\Utils</title>
<polygon fill="none" stroke="#000000" points="292.6459,-328 238.6459,-328 238.6459,-292 292.6459,-292 292.6459,-328"/>
<text text-anchor="middle" x="265.6459" y="-307.2" font-family="Courier,monospace" font-size="11.00" fill="#000000">Utils</text>
</g>
<!-- \\Tree -->
<g id="node27" class="node">
<title>\\Tree</title>
<polygon fill="none" stroke="#000000" points="292.6459,-268 238.6459,-268 238.6459,-232 292.6459,-232 292.6459,-268"/>
<text text-anchor="middle" x="265.6459" y="-247.2" font-family="Courier,monospace" font-size="11.00" fill="#000000">Tree</text>
</g>
<!-- \\TreeNode -->
<g id="node28" class="node">
<title>\\TreeNode</title>
<polygon fill="none" stroke="#000000" points="114,-214 43,-214 43,-178 114,-178 114,-214"/>
<text text-anchor="middle" x="78.5" y="-193.2" font-family="Courier,monospace" font-size="11.00" fill="#000000">TreeNode</text>
</g>
<!-- \\TreeNodeEmpty -->
<g id="node29" class="node">
<title>\\TreeNodeEmpty</title>
<polygon fill="none" stroke="#000000" points="317.6459,-214 213.6459,-214 213.6459,-178 317.6459,-178 317.6459,-214"/>
<text text-anchor="middle" x="265.6459" y="-193.2" font-family="Courier,monospace" font-size="11.00" fill="#000000">TreeNodeEmpty</text>
</g>
<!-- \\TreeNodeEmpty&#45;&gt;\\TreeNode -->
<g id="edge5" class="edge">
<title>\\TreeNodeEmpty&#45;&gt;\\TreeNode</title>
<path fill="none" stroke="#000000" d="M213.5153,-196C185.5397,-196 151.3709,-196 124.4066,-196"/>
<polygon fill="none" stroke="#000000" points="124.0809,-192.5001 114.0809,-196 124.0808,-199.5001 124.0809,-192.5001"/>
</g>
<!-- \\FilenameChanger -->
<g id="node30" class="node">
<title>\\FilenameChanger</title>
<polygon fill="none" stroke="#000000" points="324.6459,-160 206.6459,-160 206.6459,-124 324.6459,-124 324.6459,-160"/>
<text text-anchor="middle" x="265.6459" y="-139.2" font-family="Courier,monospace" font-size="11.00" fill="#000000">FilenameChanger</text>
</g>
<!-- \\KsPaginator -->
<g id="node31" class="node">
<title>\\KsPaginator</title>
<polygon fill="none" stroke="#000000" points="311.1459,-106 220.1459,-106 220.1459,-70 311.1459,-70 311.1459,-106"/>
<text text-anchor="middle" x="265.6459" y="-85.2" font-family="Courier,monospace" font-size="11.00" fill="#000000">KsPaginator</text>
</g>
<!-- \\TreeFabric -->
<g id="node32" class="node">
<title>\\TreeFabric</title>
<polygon fill="none" stroke="#000000" points="307.6459,-52 223.6459,-52 223.6459,-16 307.6459,-16 307.6459,-52"/>
<text text-anchor="middle" x="265.6459" y="-31.2" font-family="Courier,monospace" font-size="11.00" fill="#000000">TreeFabric</text>
</g>
</g>
</svg>
