<?xml version="1.0" encoding="UTF-8" standalone="no"?>
<!DOCTYPE svg PUBLIC "-//W3C//DTD SVG 1.1//EN"
 "http://www.w3.org/Graphics/SVG/1.1/DTD/svg11.dtd">
<!-- Generated by graphviz version 2.40.1 (20161225.0304)
 -->
<!-- Title: G Pages: 1 -->
<svg width="355pt" height="1076pt"
 viewBox="0.00 0.00 355.00 1076.00" xmlns="http://www.w3.org/2000/svg" xmlns:xlink="http://www.w3.org/1999/xlink">
<g id="graph0" class="graph" transform="scale(1 1) rotate(0) translate(4 1072)">
<title>G</title>
<polygon fill="#ffffff" stroke="transparent" points="-4,4 -4,-1072 351,-1072 351,4 -4,4"/>
<g id="clust1" class="cluster">
<title>cluster_Global</title>
<path fill="none" stroke="#c0c0c0" d="M20,-8C20,-8 327,-8 327,-8 333,-8 339,-14 339,-20 339,-20 339,-1048 339,-1048 339,-1054 333,-1060 327,-1060 327,-1060 20,-1060 20,-1060 14,-1060 8,-1054 8,-1048 8,-1048 8,-20 8,-20 8,-14 14,-8 20,-8"/>
<text text-anchor="middle" x="173.5" y="-1047.2" font-family="Times,serif" font-size="11.00" fill="#c0c0c0">Global</text>
</g>
<g id="clust2" class="cluster">
<title>cluster_\Helpers</title>
<path fill="none" stroke="#c0c0c0" d="M28,-62C28,-62 319,-62 319,-62 325,-62 331,-68 331,-74 331,-74 331,-850 331,-850 331,-856 325,-862 319,-862 319,-862 28,-862 28,-862 22,-862 16,-856 16,-850 16,-850 16,-74 16,-74 16,-68 22,-62 28,-62"/>
<text text-anchor="middle" x="173.5" y="-849.2" font-family="Times,serif" font-size="11.00" fill="#c0c0c0">Helpers</text>
</g>
<g id="clust3" class="cluster">
<title>cluster_\Helpers\Calendar</title>
<path fill="none" stroke="#c0c0c0" d="M36,-304C36,-304 311,-304 311,-304 317,-304 323,-310 323,-316 323,-316 323,-822 323,-822 323,-828 317,-834 311,-834 311,-834 36,-834 36,-834 30,-834 24,-828 24,-822 24,-822 24,-316 24,-316 24,-310 30,-304 36,-304"/>
<text text-anchor="middle" x="173.5" y="-821.2" font-family="Times,serif" font-size="11.00" fill="#c0c0c0">Calendar</text>
</g>
<g id="clust4" class="cluster">
<title>cluster_\Helpers\Calendar\Generator</title>
<path fill="none" stroke="#c0c0c0" d="M220,-734C220,-734 283,-734 283,-734 289,-734 295,-740 295,-746 295,-746 295,-794 295,-794 295,-800 289,-806 283,-806 283,-806 220,-806 220,-806 214,-806 208,-800 208,-794 208,-794 208,-746 208,-746 208,-740 214,-734 220,-734"/>
<text text-anchor="middle" x="251.5" y="-793.2" font-family="Times,serif" font-size="11.00" fill="#c0c0c0">Generator</text>
</g>
<g id="clust5" class="cluster">
<title>cluster_\Helpers\Calendar\Month</title>
<path fill="none" stroke="#c0c0c0" d="M44,-492C44,-492 303,-492 303,-492 309,-492 315,-498 315,-504 315,-504 315,-714 315,-714 315,-720 309,-726 303,-726 303,-726 44,-726 44,-726 38,-726 32,-720 32,-714 32,-714 32,-504 32,-504 32,-498 38,-492 44,-492"/>
<text text-anchor="middle" x="173.5" y="-713.2" font-family="Times,serif" font-size="11.00" fill="#c0c0c0">Month</text>
</g>
<g id="clust6" class="cluster">
<title>cluster_\Helpers\Calendar\ru</title>
<path fill="none" stroke="#c0c0c0" d="M228.5,-412C228.5,-412 274.5,-412 274.5,-412 280.5,-412 286.5,-418 286.5,-424 286.5,-424 286.5,-472 286.5,-472 286.5,-478 280.5,-484 274.5,-484 274.5,-484 228.5,-484 228.5,-484 222.5,-484 216.5,-478 216.5,-472 216.5,-472 216.5,-424 216.5,-424 216.5,-418 222.5,-412 228.5,-412"/>
<text text-anchor="middle" x="251.5" y="-471.2" font-family="Times,serif" font-size="11.00" fill="#c0c0c0">ru</text>
</g>
<g id="clust7" class="cluster">
<title>cluster_\Helpers\Str</title>
<path fill="none" stroke="#c0c0c0" d="M206.5,-116C206.5,-116 296.5,-116 296.5,-116 302.5,-116 308.5,-122 308.5,-128 308.5,-128 308.5,-284 308.5,-284 308.5,-290 302.5,-296 296.5,-296 296.5,-296 206.5,-296 206.5,-296 200.5,-296 194.5,-290 194.5,-284 194.5,-284 194.5,-128 194.5,-128 194.5,-122 200.5,-116 206.5,-116"/>
<text text-anchor="middle" x="251.5" y="-283.2" font-family="Times,serif" font-size="11.00" fill="#c0c0c0">Str</text>
</g>
<g id="clust8" class="cluster">
<title>cluster_\kfilin</title>
<path fill="none" stroke="#c0c0c0" d="M29,-870C29,-870 128,-870 128,-870 134,-870 140,-876 140,-882 140,-882 140,-1020 140,-1020 140,-1026 134,-1032 128,-1032 128,-1032 29,-1032 29,-1032 23,-1032 17,-1026 17,-1020 17,-1020 17,-882 17,-882 17,-876 23,-870 29,-870"/>
<text text-anchor="middle" x="78.5" y="-1019.2" font-family="Times,serif" font-size="11.00" fill="#c0c0c0">kfilin</text>
</g>
<g id="clust9" class="cluster">
<title>cluster_\kfilin\Calendar</title>
<path fill="none" stroke="#c0c0c0" d="M37,-878C37,-878 120,-878 120,-878 126,-878 132,-884 132,-890 132,-890 132,-992 132,-992 132,-998 126,-1004 120,-1004 120,-1004 37,-1004 37,-1004 31,-1004 25,-998 25,-992 25,-992 25,-890 25,-890 25,-884 31,-878 37,-878"/>
<text text-anchor="middle" x="78.5" y="-991.2" font-family="Times,serif" font-size="11.00" fill="#c0c0c0">Calendar</text>
</g>
<!-- \\Helpers\\Calendar\\Generator\\Workdays -->
<g id="node1" class="node">
<title>\\Helpers\\Calendar\\Generator\\Workdays</title>
<polygon fill="none" stroke="#000000" points="287,-778 216,-778 216,-742 287,-742 287,-778"/>
<text text-anchor="middle" x="251.5" y="-757.2" font-family="Courier,monospace" font-size="11.00" fill="#000000">Workdays</text>
</g>
<!-- \\kfilin\\Calendar\\GeneratorIf -->
<g id="node16" class="node">
<title>\\kfilin\\Calendar\\GeneratorIf</title>
<polygon fill="none" stroke="#000000" points="124,-922 33,-922 33,-886 124,-886 124,-922"/>
<text text-anchor="middle" x="78.5" y="-901.2" font-family="Courier,monospace" font-size="11.00" fill="#000000">GeneratorIf</text>
</g>
<!-- \\Helpers\\Calendar\\Generator\\Workdays&#45;&gt;\\kfilin\\Calendar\\GeneratorIf -->
<g id="edge1" class="edge">
<title>\\Helpers\\Calendar\\Generator\\Workdays&#45;&gt;\\kfilin\\Calendar\\GeneratorIf</title>
<path fill="none" stroke="#000000" stroke-dasharray="1,5" d="M229.5894,-778.2377C198.7819,-803.881 142.5787,-850.6628 108.0856,-879.3738"/>
<polygon fill="none" stroke="#000000" points="105.6794,-876.8228 100.2327,-885.9104 110.1577,-882.2029 105.6794,-876.8228"/>
</g>
<!-- \\Helpers\\Calendar\\Month\\Dt -->
<g id="node2" class="node">
<title>\\Helpers\\Calendar\\Month\\Dt</title>
<polygon fill="none" stroke="#000000" points="278.5,-698 224.5,-698 224.5,-662 278.5,-662 278.5,-698"/>
<text text-anchor="middle" x="251.5" y="-677.2" font-family="Courier,monospace" font-size="11.00" fill="#000000">Dt</text>
</g>
<!-- \\Helpers\\Calendar\\Month\\Formatter -->
<g id="node3" class="node">
<title>\\Helpers\\Calendar\\Month\\Formatter</title>
<polygon fill="none" stroke="#000000" points="117,-644 40,-644 40,-608 117,-608 117,-644"/>
<text text-anchor="middle" x="78.5" y="-623.2" font-family="Courier,monospace" font-size="11.00" fill="#000000">Formatter</text>
</g>
<!-- \\Helpers\\Calendar\\Month\\FormatterShort -->
<g id="node4" class="node">
<title>\\Helpers\\Calendar\\Month\\FormatterShort</title>
<polygon fill="none" stroke="#000000" points="307,-644 196,-644 196,-608 307,-608 307,-644"/>
<text text-anchor="middle" x="251.5" y="-623.2" font-family="Courier,monospace" font-size="11.00" fill="#000000">FormatterShort</text>
</g>
<!-- \\Helpers\\Calendar\\Month\\FormatterShort&#45;&gt;\\Helpers\\Calendar\\Month\\Formatter -->
<g id="edge2" class="edge">
<title>\\Helpers\\Calendar\\Month\\FormatterShort&#45;&gt;\\Helpers\\Calendar\\Month\\Formatter</title>
<path fill="none" stroke="#000000" d="M195.8094,-626C173.7391,-626 148.5907,-626 127.254,-626"/>
<polygon fill="none" stroke="#000000" points="127.116,-622.5001 117.116,-626 127.1159,-629.5001 127.116,-622.5001"/>
</g>
<!-- \\Helpers\\Calendar\\Month\\Fabric -->
<g id="node5" class="node">
<title>\\Helpers\\Calendar\\Month\\Fabric</title>
<polygon fill="none" stroke="#000000" points="280,-590 223,-590 223,-554 280,-554 280,-590"/>
<text text-anchor="middle" x="251.5" y="-569.2" font-family="Courier,monospace" font-size="11.00" fill="#000000">Fabric</text>
</g>
<!-- \\Helpers\\Calendar\\Month\\Is -->
<g id="node6" class="node">
<title>\\Helpers\\Calendar\\Month\\Is</title>
<polygon fill="none" stroke="#000000" points="278.5,-536 224.5,-536 224.5,-500 278.5,-500 278.5,-536"/>
<text text-anchor="middle" x="251.5" y="-515.2" font-family="Courier,monospace" font-size="11.00" fill="#000000">Is</text>
</g>
<!-- \\Helpers\\Calendar\\ru\\Month -->
<g id="node7" class="node">
<title>\\Helpers\\Calendar\\ru\\Month</title>
<polygon fill="none" stroke="#000000" points="278.5,-456 224.5,-456 224.5,-420 278.5,-420 278.5,-456"/>
<text text-anchor="middle" x="251.5" y="-435.2" font-family="Courier,monospace" font-size="11.00" fill="#000000">Month</text>
</g>
<!-- \\Helpers\\Calendar\\Month -->
<g id="node9" class="node">
<title>\\Helpers\\Calendar\\Month</title>
<polygon fill="none" stroke="#000000" points="105.5,-456 51.5,-456 51.5,-420 105.5,-420 105.5,-456"/>
<text text-anchor="middle" x="78.5" y="-435.2" font-family="Courier,monospace" font-size="11.00" fill="#000000">Month</text>
</g>
<!-- \\Helpers\\Calendar\\ru\\Month&#45;&gt;\\Helpers\\Calendar\\Month -->
<g id="edge3" class="edge">
<title>\\Helpers\\Calendar\\ru\\Month&#45;&gt;\\Helpers\\Calendar\\Month</title>
<path fill="none" stroke="#000000" d="M224.4688,-438C195.2276,-438 148.4131,-438 115.7087,-438"/>
<polygon fill="none" stroke="#000000" points="115.6264,-434.5001 105.6263,-438 115.6263,-441.5001 115.6264,-434.5001"/>
</g>
<!-- \\Helpers\\Calendar\\Year -->
<g id="node8" class="node">
<title>\\Helpers\\Calendar\\Year</title>
<polygon fill="none" stroke="#000000" points="278.5,-402 224.5,-402 224.5,-366 278.5,-366 278.5,-402"/>
<text text-anchor="middle" x="251.5" y="-381.2" font-family="Courier,monospace" font-size="11.00" fill="#000000">Year</text>
</g>
<!-- \\Helpers\\Calendar\\Date -->
<g id="node10" class="node">
<title>\\Helpers\\Calendar\\Date</title>
<polygon fill="none" stroke="#000000" points="278.5,-348 224.5,-348 224.5,-312 278.5,-312 278.5,-348"/>
<text text-anchor="middle" x="251.5" y="-327.2" font-family="Courier,monospace" font-size="11.00" fill="#000000">Date</text>
</g>
<!-- \\Helpers\\Str\\Random -->
<g id="node11" class="node">
<title>\\Helpers\\Str\\Random</title>
<polygon fill="none" stroke="#000000" points="280,-268 223,-268 223,-232 280,-232 280,-268"/>
<text text-anchor="middle" x="251.5" y="-247.2" font-family="Courier,monospace" font-size="11.00" fill="#000000">Random</text>
</g>
<!-- \\Helpers\\Str\\Ru -->
<g id="node12" class="node">
<title>\\Helpers\\Str\\Ru</title>
<polygon fill="none" stroke="#000000" points="278.5,-214 224.5,-214 224.5,-178 278.5,-178 278.5,-214"/>
<text text-anchor="middle" x="251.5" y="-193.2" font-family="Courier,monospace" font-size="11.00" fill="#000000">Ru</text>
</g>
<!-- \\Helpers\\Str\\RuPluralizer -->
<g id="node13" class="node">
<title>\\Helpers\\Str\\RuPluralizer</title>
<polygon fill="none" stroke="#000000" points="300.5,-160 202.5,-160 202.5,-124 300.5,-124 300.5,-160"/>
<text text-anchor="middle" x="251.5" y="-139.2" font-family="Courier,monospace" font-size="11.00" fill="#000000">RuPluralizer</text>
</g>
<!-- \\Helpers\\Str -->
<g id="node14" class="node">
<title>\\Helpers\\Str</title>
<polygon fill="none" stroke="#000000" points="278.5,-106 224.5,-106 224.5,-70 278.5,-70 278.5,-106"/>
<text text-anchor="middle" x="251.5" y="-85.2" font-family="Courier,monospace" font-size="11.00" fill="#000000">Str</text>
</g>
<!-- \\kfilin\\Calendar\\Period -->
<g id="node15" class="node">
<title>\\kfilin\\Calendar\\Period</title>
<polygon fill="none" stroke="#000000" points="107,-976 50,-976 50,-940 107,-940 107,-976"/>
<text text-anchor="middle" x="78.5" y="-955.2" font-family="Courier,monospace" font-size="11.00" fill="#000000">Period</text>
</g>
<!-- \\Week -->
<g id="node17" class="node">
<title>\\Week</title>
<polygon fill="none" stroke="#000000" points="278.5,-52 224.5,-52 224.5,-16 278.5,-16 278.5,-52"/>
<text text-anchor="middle" x="251.5" y="-31.2" font-family="Courier,monospace" font-size="11.00" fill="#000000">Week</text>
</g>
</g>
</svg>
