<?xml version="1.0" encoding="UTF-8" standalone="no"?>
<!DOCTYPE svg PUBLIC "-//W3C//DTD SVG 1.1//EN"
 "http://www.w3.org/Graphics/SVG/1.1/DTD/svg11.dtd">
<!-- Generated by graphviz version 2.40.1 (20161225.0304)
 -->
<!-- Title: G Pages: 1 -->
<svg width="555pt" height="1096pt"
 viewBox="0.00 0.00 555.00 1096.00" xmlns="http://www.w3.org/2000/svg" xmlns:xlink="http://www.w3.org/1999/xlink">
<g id="graph0" class="graph" transform="scale(1 1) rotate(0) translate(4 1092)">
<title>G</title>
<polygon fill="#ffffff" stroke="transparent" points="-4,4 -4,-1092 551,-1092 551,4 -4,4"/>
<g id="clust1" class="cluster">
<title>cluster_Global</title>
<path fill="none" stroke="#c0c0c0" d="M20,-8C20,-8 527,-8 527,-8 533,-8 539,-14 539,-20 539,-20 539,-1068 539,-1068 539,-1074 533,-1080 527,-1080 527,-1080 20,-1080 20,-1080 14,-1080 8,-1074 8,-1068 8,-1068 8,-20 8,-20 8,-14 14,-8 20,-8"/>
<text text-anchor="middle" x="273.5" y="-1067.2" font-family="Times,serif" font-size="11.00" fill="#c0c0c0">Global</text>
</g>
<g id="clust2" class="cluster">
<title>cluster_\Kfilin</title>
<path fill="none" stroke="#c0c0c0" d="M28,-16C28,-16 519,-16 519,-16 525,-16 531,-22 531,-28 531,-28 531,-996 531,-996 531,-1002 525,-1008 519,-1008 519,-1008 28,-1008 28,-1008 22,-1008 16,-1002 16,-996 16,-996 16,-28 16,-28 16,-22 22,-16 28,-16"/>
<text text-anchor="middle" x="273.5" y="-995.2" font-family="Times,serif" font-size="11.00" fill="#c0c0c0">Kfilin</text>
</g>
<g id="clust3" class="cluster">
<title>cluster_\Kfilin\Helpers</title>
<path fill="none" stroke="#c0c0c0" d="M36,-24C36,-24 511,-24 511,-24 517,-24 523,-30 523,-36 523,-36 523,-968 523,-968 523,-974 517,-980 511,-980 511,-980 36,-980 36,-980 30,-980 24,-974 24,-968 24,-968 24,-36 24,-36 24,-30 30,-24 36,-24"/>
<text text-anchor="middle" x="273.5" y="-967.2" font-family="Times,serif" font-size="11.00" fill="#c0c0c0">Helpers</text>
</g>
<g id="clust4" class="cluster">
<title>cluster_\Kfilin\Helpers\Calendar</title>
<path fill="none" stroke="#c0c0c0" d="M44,-348C44,-348 503,-348 503,-348 509,-348 515,-354 515,-360 515,-360 515,-940 515,-940 515,-946 509,-952 503,-952 503,-952 44,-952 44,-952 38,-952 32,-946 32,-940 32,-940 32,-360 32,-360 32,-354 38,-348 44,-348"/>
<text text-anchor="middle" x="273.5" y="-939.2" font-family="Times,serif" font-size="11.00" fill="#c0c0c0">Calendar</text>
</g>
<g id="clust5" class="cluster">
<title>cluster_\Kfilin\Helpers\Calendar\Month</title>
<path fill="none" stroke="#c0c0c0" d="M52,-402C52,-402 495,-402 495,-402 501,-402 507,-408 507,-414 507,-414 507,-652 507,-652 507,-658 501,-664 495,-664 495,-664 52,-664 52,-664 46,-664 40,-658 40,-652 40,-652 40,-414 40,-414 40,-408 46,-402 52,-402"/>
<text text-anchor="middle" x="273.5" y="-651.2" font-family="Times,serif" font-size="11.00" fill="#c0c0c0">Month</text>
</g>
<g id="clust6" class="cluster">
<title>cluster_\Kfilin\Helpers\Calendar\Month\Ru</title>
<path fill="none" stroke="#c0c0c0" d="M218,-564C218,-564 487,-564 487,-564 493,-564 499,-570 499,-576 499,-576 499,-624 499,-624 499,-630 493,-636 487,-636 487,-636 218,-636 218,-636 212,-636 206,-630 206,-624 206,-624 206,-576 206,-576 206,-570 212,-564 218,-564"/>
<text text-anchor="middle" x="352.5" y="-623.2" font-family="Times,serif" font-size="11.00" fill="#c0c0c0">Ru</text>
</g>
<g id="clust7" class="cluster">
<title>cluster_\Kfilin\Helpers\Str</title>
<path fill="none" stroke="#c0c0c0" d="M389.5,-132C389.5,-132 481.5,-132 481.5,-132 487.5,-132 493.5,-138 493.5,-144 493.5,-144 493.5,-328 493.5,-328 493.5,-334 487.5,-340 481.5,-340 481.5,-340 389.5,-340 389.5,-340 383.5,-340 377.5,-334 377.5,-328 377.5,-328 377.5,-144 377.5,-144 377.5,-138 383.5,-132 389.5,-132"/>
<text text-anchor="middle" x="435.5" y="-327.2" font-family="Times,serif" font-size="11.00" fill="#c0c0c0">Str</text>
</g>
<g id="clust8" class="cluster">
<title>cluster_\Kfilin\Helpers\Str\Ru</title>
<path fill="none" stroke="#c0c0c0" d="M397.5,-240C397.5,-240 473.5,-240 473.5,-240 479.5,-240 485.5,-246 485.5,-252 485.5,-252 485.5,-300 485.5,-300 485.5,-306 479.5,-312 473.5,-312 473.5,-312 397.5,-312 397.5,-312 391.5,-312 385.5,-306 385.5,-300 385.5,-300 385.5,-252 385.5,-252 385.5,-246 391.5,-240 397.5,-240"/>
<text text-anchor="middle" x="435.5" y="-299.2" font-family="Times,serif" font-size="11.00" fill="#c0c0c0">Ru</text>
</g>
<!-- \\Kfilin\\Helpers\\Calendar\\Month\\Ru\\Formatter -->
<g id="node1" class="node">
<title>\\Kfilin\\Helpers\\Calendar\\Month\\Ru\\Formatter</title>
<polygon fill="none" stroke="#000000" points="291,-608 214,-608 214,-572 291,-572 291,-608"/>
<text text-anchor="middle" x="252.5" y="-587.2" font-family="Courier,monospace" font-size="11.00" fill="#000000">Formatter</text>
</g>
<!-- \\Kfilin\\Helpers\\Calendar\\Month\\Formatter -->
<g id="node4" class="node">
<title>\\Kfilin\\Helpers\\Calendar\\Month\\Formatter</title>
<polygon fill="none" stroke="#000000" points="125,-581 48,-581 48,-545 125,-545 125,-581"/>
<text text-anchor="middle" x="86.5" y="-560.2" font-family="Courier,monospace" font-size="11.00" fill="#000000">Formatter</text>
</g>
<!-- \\Kfilin\\Helpers\\Calendar\\Month\\Ru\\Formatter&#45;&gt;\\Kfilin\\Helpers\\Calendar\\Month\\Formatter -->
<g id="edge2" class="edge">
<title>\\Kfilin\\Helpers\\Calendar\\Month\\Ru\\Formatter&#45;&gt;\\Kfilin\\Helpers\\Calendar\\Month\\Formatter</title>
<path fill="none" stroke="#000000" d="M213.999,-583.7378C190.513,-579.9178 160.2779,-575 135.1457,-570.9123"/>
<polygon fill="none" stroke="#000000" points="135.5116,-567.4258 125.0794,-569.275 134.3877,-574.3351 135.5116,-567.4258"/>
</g>
<!-- \\Kfilin\\Helpers\\Calendar\\Month\\Ru\\FormatterShort -->
<g id="node2" class="node">
<title>\\Kfilin\\Helpers\\Calendar\\Month\\Ru\\FormatterShort</title>
<polygon fill="none" stroke="#000000" points="491,-608 380,-608 380,-572 491,-572 491,-608"/>
<text text-anchor="middle" x="435.5" y="-587.2" font-family="Courier,monospace" font-size="11.00" fill="#000000">FormatterShort</text>
</g>
<!-- \\Kfilin\\Helpers\\Calendar\\Month\\Ru\\FormatterShort&#45;&gt;\\Kfilin\\Helpers\\Calendar\\Month\\Ru\\Formatter -->
<g id="edge3" class="edge">
<title>\\Kfilin\\Helpers\\Calendar\\Month\\Ru\\FormatterShort&#45;&gt;\\Kfilin\\Helpers\\Calendar\\Month\\Ru\\Formatter</title>
<path fill="none" stroke="#000000" d="M379.5996,-590C354.6948,-590 325.6213,-590 301.5709,-590"/>
<polygon fill="none" stroke="#000000" points="301.2537,-586.5001 291.2537,-590 301.2536,-593.5001 301.2537,-586.5001"/>
</g>
<!-- \\Kfilin\\Helpers\\Calendar\\Month\\Dt -->
<g id="node3" class="node">
<title>\\Kfilin\\Helpers\\Calendar\\Month\\Dt</title>
<polygon fill="none" stroke="#000000" points="462.5,-554 408.5,-554 408.5,-518 462.5,-518 462.5,-554"/>
<text text-anchor="middle" x="435.5" y="-533.2" font-family="Courier,monospace" font-size="11.00" fill="#000000">Dt</text>
</g>
<!-- \\Kfilin\\Helpers\\Calendar\\Month\\FormatterShort -->
<g id="node5" class="node">
<title>\\Kfilin\\Helpers\\Calendar\\Month\\FormatterShort</title>
<polygon fill="none" stroke="#000000" points="308,-554 197,-554 197,-518 308,-518 308,-554"/>
<text text-anchor="middle" x="252.5" y="-533.2" font-family="Courier,monospace" font-size="11.00" fill="#000000">FormatterShort</text>
</g>
<!-- \\Kfilin\\Helpers\\Calendar\\Month\\FormatterShort&#45;&gt;\\Kfilin\\Helpers\\Calendar\\Month\\Formatter -->
<g id="edge1" class="edge">
<title>\\Kfilin\\Helpers\\Calendar\\Month\\FormatterShort&#45;&gt;\\Kfilin\\Helpers\\Calendar\\Month\\Formatter</title>
<path fill="none" stroke="#000000" d="M196.7626,-545.0657C176.8026,-548.3122 154.4764,-551.9436 135.1619,-555.0851"/>
<polygon fill="none" stroke="#000000" points="134.3796,-551.6663 125.0712,-556.7264 135.5034,-558.5755 134.3796,-551.6663"/>
</g>
<!-- \\Kfilin\\Helpers\\Calendar\\Month\\Fabric -->
<g id="node6" class="node">
<title>\\Kfilin\\Helpers\\Calendar\\Month\\Fabric</title>
<polygon fill="none" stroke="#000000" points="464,-500 407,-500 407,-464 464,-464 464,-500"/>
<text text-anchor="middle" x="435.5" y="-479.2" font-family="Courier,monospace" font-size="11.00" fill="#000000">Fabric</text>
</g>
<!-- \\Kfilin\\Helpers\\Calendar\\Month\\Is -->
<g id="node7" class="node">
<title>\\Kfilin\\Helpers\\Calendar\\Month\\Is</title>
<polygon fill="none" stroke="#000000" points="462.5,-446 408.5,-446 408.5,-410 462.5,-410 462.5,-446"/>
<text text-anchor="middle" x="435.5" y="-425.2" font-family="Courier,monospace" font-size="11.00" fill="#000000">Is</text>
</g>
<!-- \\Kfilin\\Helpers\\Calendar\\Year -->
<g id="node8" class="node">
<title>\\Kfilin\\Helpers\\Calendar\\Year</title>
<polygon fill="none" stroke="#000000" points="462.5,-870 408.5,-870 408.5,-834 462.5,-834 462.5,-870"/>
<text text-anchor="middle" x="435.5" y="-849.2" font-family="Courier,monospace" font-size="11.00" fill="#000000">Year</text>
</g>
<!-- \\Kfilin\\Helpers\\Calendar\\Period -->
<g id="node9" class="node">
<title>\\Kfilin\\Helpers\\Calendar\\Period</title>
<polygon fill="none" stroke="#000000" points="464,-816 407,-816 407,-780 464,-780 464,-816"/>
<text text-anchor="middle" x="435.5" y="-795.2" font-family="Courier,monospace" font-size="11.00" fill="#000000">Period</text>
</g>
<!-- \\Kfilin\\Helpers\\Calendar\\Month -->
<g id="node10" class="node">
<title>\\Kfilin\\Helpers\\Calendar\\Month</title>
<polygon fill="none" stroke="#000000" points="462.5,-762 408.5,-762 408.5,-726 462.5,-726 462.5,-762"/>
<text text-anchor="middle" x="435.5" y="-741.2" font-family="Courier,monospace" font-size="11.00" fill="#000000">Month</text>
</g>
<!-- \\Kfilin\\Helpers\\Calendar\\Week -->
<g id="node11" class="node">
<title>\\Kfilin\\Helpers\\Calendar\\Week</title>
<polygon fill="none" stroke="#000000" points="462.5,-708 408.5,-708 408.5,-672 462.5,-672 462.5,-708"/>
<text text-anchor="middle" x="435.5" y="-687.2" font-family="Courier,monospace" font-size="11.00" fill="#000000">Week</text>
</g>
<!-- \\Kfilin\\Helpers\\Calendar\\Date -->
<g id="node12" class="node">
<title>\\Kfilin\\Helpers\\Calendar\\Date</title>
<polygon fill="none" stroke="#000000" points="462.5,-924 408.5,-924 408.5,-888 462.5,-888 462.5,-924"/>
<text text-anchor="middle" x="435.5" y="-903.2" font-family="Courier,monospace" font-size="11.00" fill="#000000">Date</text>
</g>
<!-- DateTime -->
<g id="node19" class="node">
<title>DateTime</title>
<ellipse fill="none" stroke="#000000" cx="252.5" cy="-1034" rx="46.2923" ry="18"/>
<text text-anchor="middle" x="252.5" y="-1030.3" font-family="Times,serif" font-size="14.00" fill="#c0c0c0">DateTime</text>
</g>
<!-- \\Kfilin\\Helpers\\Calendar\\Date&#45;&gt;DateTime -->
<g id="edge4" class="edge">
<title>\\Kfilin\\Helpers\\Calendar\\Date&#45;&gt;DateTime</title>
<path fill="none" stroke="#000000" d="M409.6687,-924.0678C376.5171,-947.2558 319.0575,-987.4461 283.5585,-1012.276"/>
<polygon fill="none" stroke="#000000" points="281.223,-1009.6383 275.0347,-1018.238 285.2352,-1015.3744 281.223,-1009.6383"/>
</g>
<!-- \\Kfilin\\Helpers\\Calendar\\GeneratorIf -->
<g id="node13" class="node">
<title>\\Kfilin\\Helpers\\Calendar\\GeneratorIf</title>
<polygon fill="none" stroke="#000000" points="481,-392 390,-392 390,-356 481,-356 481,-392"/>
<text text-anchor="middle" x="435.5" y="-371.2" font-family="Courier,monospace" font-size="11.00" fill="#000000">GeneratorIf</text>
</g>
<!-- \\Kfilin\\Helpers\\Str\\Ru\\Pluralizer -->
<g id="node14" class="node">
<title>\\Kfilin\\Helpers\\Str\\Ru\\Pluralizer</title>
<polygon fill="none" stroke="#000000" points="477.5,-284 393.5,-284 393.5,-248 477.5,-248 477.5,-284"/>
<text text-anchor="middle" x="435.5" y="-263.2" font-family="Courier,monospace" font-size="11.00" fill="#000000">Pluralizer</text>
</g>
<!-- \\Kfilin\\Helpers\\Str\\Random -->
<g id="node15" class="node">
<title>\\Kfilin\\Helpers\\Str\\Random</title>
<polygon fill="none" stroke="#000000" points="464,-230 407,-230 407,-194 464,-194 464,-230"/>
<text text-anchor="middle" x="435.5" y="-209.2" font-family="Courier,monospace" font-size="11.00" fill="#000000">Random</text>
</g>
<!-- \\Kfilin\\Helpers\\Str\\Ru -->
<g id="node16" class="node">
<title>\\Kfilin\\Helpers\\Str\\Ru</title>
<polygon fill="none" stroke="#000000" points="462.5,-176 408.5,-176 408.5,-140 462.5,-140 462.5,-176"/>
<text text-anchor="middle" x="435.5" y="-155.2" font-family="Courier,monospace" font-size="11.00" fill="#000000">Ru</text>
</g>
<!-- \\Kfilin\\Helpers\\Str -->
<g id="node17" class="node">
<title>\\Kfilin\\Helpers\\Str</title>
<polygon fill="none" stroke="#000000" points="462.5,-122 408.5,-122 408.5,-86 462.5,-86 462.5,-122"/>
<text text-anchor="middle" x="435.5" y="-101.2" font-family="Courier,monospace" font-size="11.00" fill="#000000">Str</text>
</g>
<!-- \\Kfilin\\Helpers\\Debug -->
<g id="node18" class="node">
<title>\\Kfilin\\Helpers\\Debug</title>
<polygon fill="none" stroke="#000000" points="462.5,-68 408.5,-68 408.5,-32 462.5,-32 462.5,-68"/>
<text text-anchor="middle" x="435.5" y="-47.2" font-family="Courier,monospace" font-size="11.00" fill="#000000">Debug</text>
</g>
</g>
</svg>
