<?xml version="1.0" encoding="UTF-8" standalone="no"?>
<!DOCTYPE svg PUBLIC "-//W3C//DTD SVG 1.1//EN"
 "http://www.w3.org/Graphics/SVG/1.1/DTD/svg11.dtd">
<!-- Generated by graphviz version 2.40.1 (20161225.0304)
 -->
<!-- Title: G Pages: 1 -->
<svg width="374pt" height="1496pt"
 viewBox="0.00 0.00 373.65 1496.00" xmlns="http://www.w3.org/2000/svg" xmlns:xlink="http://www.w3.org/1999/xlink">
<g id="graph0" class="graph" transform="scale(1 1) rotate(0) translate(4 1492)">
<title>G</title>
<polygon fill="#ffffff" stroke="transparent" points="-4,4 -4,-1492 369.6459,-1492 369.6459,4 -4,4"/>
<g id="clust1" class="cluster">
<title>cluster_Global</title>
<path fill="none" stroke="#c0c0c0" d="M20,-8C20,-8 345.6459,-8 345.6459,-8 351.6459,-8 357.6459,-14 357.6459,-20 357.6459,-20 357.6459,-1468 357.6459,-1468 357.6459,-1474 351.6459,-1480 345.6459,-1480 345.6459,-1480 20,-1480 20,-1480 14,-1480 8,-1474 8,-1468 8,-1468 8,-20 8,-20 8,-14 14,-8 20,-8"/>
<text text-anchor="middle" x="182.823" y="-1467.2" font-family="Times,serif" font-size="11.00" fill="#c0c0c0">Global</text>
</g>
<g id="clust2" class="cluster">
<title>cluster_\app</title>
<path fill="none" stroke="#c0c0c0" d="M233.6459,-1344C233.6459,-1344 295.6459,-1344 295.6459,-1344 301.6459,-1344 307.6459,-1350 307.6459,-1356 307.6459,-1356 307.6459,-1440 307.6459,-1440 307.6459,-1446 301.6459,-1452 295.6459,-1452 295.6459,-1452 233.6459,-1452 233.6459,-1452 227.6459,-1452 221.6459,-1446 221.6459,-1440 221.6459,-1440 221.6459,-1356 221.6459,-1356 221.6459,-1350 227.6459,-1344 233.6459,-1344"/>
<text text-anchor="middle" x="264.6459" y="-1439.2" font-family="Times,serif" font-size="11.00" fill="#c0c0c0">app</text>
</g>
<g id="clust3" class="cluster">
<title>cluster_\app\models</title>
<path fill="none" stroke="#c0c0c0" d="M241.6459,-1352C241.6459,-1352 287.6459,-1352 287.6459,-1352 293.6459,-1352 299.6459,-1358 299.6459,-1364 299.6459,-1364 299.6459,-1412 299.6459,-1412 299.6459,-1418 293.6459,-1424 287.6459,-1424 287.6459,-1424 241.6459,-1424 241.6459,-1424 235.6459,-1424 229.6459,-1418 229.6459,-1412 229.6459,-1412 229.6459,-1364 229.6459,-1364 229.6459,-1358 235.6459,-1352 241.6459,-1352"/>
<text text-anchor="middle" x="264.6459" y="-1411.2" font-family="Times,serif" font-size="11.00" fill="#c0c0c0">models</text>
</g>
<g id="clust4" class="cluster">
<title>cluster_\KsUtils</title>
<path fill="none" stroke="#c0c0c0" d="M45,-948C45,-948 337.6459,-948 337.6459,-948 343.6459,-948 349.6459,-954 349.6459,-960 349.6459,-960 349.6459,-1324 349.6459,-1324 349.6459,-1330 343.6459,-1336 337.6459,-1336 337.6459,-1336 45,-1336 45,-1336 39,-1336 33,-1330 33,-1324 33,-1324 33,-960 33,-960 33,-954 39,-948 45,-948"/>
<text text-anchor="middle" x="191.323" y="-1323.2" font-family="Times,serif" font-size="11.00" fill="#c0c0c0">KsUtils</text>
</g>
<g id="clust5" class="cluster">
<title>cluster_\KsUtils\File</title>
<path fill="none" stroke="#c0c0c0" d="M53,-1002C53,-1002 329.6459,-1002 329.6459,-1002 335.6459,-1002 341.6459,-1008 341.6459,-1014 341.6459,-1014 341.6459,-1296 341.6459,-1296 341.6459,-1302 335.6459,-1308 329.6459,-1308 329.6459,-1308 53,-1308 53,-1308 47,-1308 41,-1302 41,-1296 41,-1296 41,-1014 41,-1014 41,-1008 47,-1002 53,-1002"/>
<text text-anchor="middle" x="191.323" y="-1295.2" font-family="Times,serif" font-size="11.00" fill="#c0c0c0">File</text>
</g>
<g id="clust6" class="cluster">
<title>cluster_\KsUtils\File\Filter</title>
<path fill="none" stroke="#c0c0c0" d="M230.1459,-1110C230.1459,-1110 299.1459,-1110 299.1459,-1110 305.1459,-1110 311.1459,-1116 311.1459,-1122 311.1459,-1122 311.1459,-1170 311.1459,-1170 311.1459,-1176 305.1459,-1182 299.1459,-1182 299.1459,-1182 230.1459,-1182 230.1459,-1182 224.1459,-1182 218.1459,-1176 218.1459,-1170 218.1459,-1170 218.1459,-1122 218.1459,-1122 218.1459,-1116 224.1459,-1110 230.1459,-1110"/>
<text text-anchor="middle" x="264.6459" y="-1169.2" font-family="Times,serif" font-size="11.00" fill="#c0c0c0">Filter</text>
</g>
<g id="clust7" class="cluster">
<title>cluster_\Helpers</title>
<path fill="none" stroke="#c0c0c0" d="M46.5,-332C46.5,-332 312.1459,-332 312.1459,-332 318.1459,-332 324.1459,-338 324.1459,-344 324.1459,-344 324.1459,-704 324.1459,-704 324.1459,-710 318.1459,-716 312.1459,-716 312.1459,-716 46.5,-716 46.5,-716 40.5,-716 34.5,-710 34.5,-704 34.5,-704 34.5,-344 34.5,-344 34.5,-338 40.5,-332 46.5,-332"/>
<text text-anchor="middle" x="179.323" y="-703.2" font-family="Times,serif" font-size="11.00" fill="#c0c0c0">Helpers</text>
</g>
<g id="clust8" class="cluster">
<title>cluster_\Helpers\Calendar</title>
<path fill="none" stroke="#c0c0c0" d="M54.5,-500C54.5,-500 304.1459,-500 304.1459,-500 310.1459,-500 316.1459,-506 316.1459,-512 316.1459,-512 316.1459,-676 316.1459,-676 316.1459,-682 310.1459,-688 304.1459,-688 304.1459,-688 54.5,-688 54.5,-688 48.5,-688 42.5,-682 42.5,-676 42.5,-676 42.5,-512 42.5,-512 42.5,-506 48.5,-500 54.5,-500"/>
<text text-anchor="middle" x="179.323" y="-675.2" font-family="Times,serif" font-size="11.00" fill="#c0c0c0">Calendar</text>
</g>
<g id="clust9" class="cluster">
<title>cluster_\Helpers\Calendar\ru</title>
<path fill="none" stroke="#c0c0c0" d="M241.6459,-508C241.6459,-508 287.6459,-508 287.6459,-508 293.6459,-508 299.6459,-514 299.6459,-520 299.6459,-520 299.6459,-568 299.6459,-568 299.6459,-574 293.6459,-580 287.6459,-580 287.6459,-580 241.6459,-580 241.6459,-580 235.6459,-580 229.6459,-574 229.6459,-568 229.6459,-568 229.6459,-520 229.6459,-520 229.6459,-514 235.6459,-508 241.6459,-508"/>
<text text-anchor="middle" x="264.6459" y="-567.2" font-family="Times,serif" font-size="11.00" fill="#c0c0c0">ru</text>
</g>
<g id="clust10" class="cluster">
<title>cluster_\Helpers\Calendar\Generator</title>
<path fill="none" stroke="#c0c0c0" d="M233.1459,-588C233.1459,-588 296.1459,-588 296.1459,-588 302.1459,-588 308.1459,-594 308.1459,-600 308.1459,-600 308.1459,-648 308.1459,-648 308.1459,-654 302.1459,-660 296.1459,-660 296.1459,-660 233.1459,-660 233.1459,-660 227.1459,-660 221.1459,-654 221.1459,-648 221.1459,-648 221.1459,-600 221.1459,-600 221.1459,-594 227.1459,-588 233.1459,-588"/>
<text text-anchor="middle" x="264.6459" y="-647.2" font-family="Times,serif" font-size="11.00" fill="#c0c0c0">Generator</text>
</g>
<g id="clust11" class="cluster">
<title>cluster_\Helpers\Dt</title>
<path fill="none" stroke="#c0c0c0" d="M233.6459,-384C233.6459,-384 295.6459,-384 295.6459,-384 301.6459,-384 307.6459,-390 307.6459,-396 307.6459,-396 307.6459,-480 307.6459,-480 307.6459,-486 301.6459,-492 295.6459,-492 295.6459,-492 233.6459,-492 233.6459,-492 227.6459,-492 221.6459,-486 221.6459,-480 221.6459,-480 221.6459,-396 221.6459,-396 221.6459,-390 227.6459,-384 233.6459,-384"/>
<text text-anchor="middle" x="264.6459" y="-479.2" font-family="Times,serif" font-size="11.00" fill="#c0c0c0">Dt</text>
</g>
<g id="clust12" class="cluster">
<title>cluster_\Helpers\Dt\Formatters</title>
<path fill="none" stroke="#c0c0c0" d="M241.6459,-392C241.6459,-392 287.6459,-392 287.6459,-392 293.6459,-392 299.6459,-398 299.6459,-404 299.6459,-404 299.6459,-452 299.6459,-452 299.6459,-458 293.6459,-464 287.6459,-464 287.6459,-464 241.6459,-464 241.6459,-464 235.6459,-464 229.6459,-458 229.6459,-452 229.6459,-452 229.6459,-404 229.6459,-404 229.6459,-398 235.6459,-392 241.6459,-392"/>
<text text-anchor="middle" x="264.6459" y="-451.2" font-family="Times,serif" font-size="11.00" fill="#c0c0c0">Formatters</text>
</g>
<g id="clust13" class="cluster">
<title>cluster_\kfilin</title>
<path fill="none" stroke="#c0c0c0" d="M28,-724C28,-724 127,-724 127,-724 133,-724 139,-730 139,-736 139,-736 139,-928 139,-928 139,-934 133,-940 127,-940 127,-940 28,-940 28,-940 22,-940 16,-934 16,-928 16,-928 16,-736 16,-736 16,-730 22,-724 28,-724"/>
<text text-anchor="middle" x="77.5" y="-927.2" font-family="Times,serif" font-size="11.00" fill="#c0c0c0">kfilin</text>
</g>
<g id="clust14" class="cluster">
<title>cluster_\kfilin\Calendar</title>
<path fill="none" stroke="#c0c0c0" d="M36,-732C36,-732 119,-732 119,-732 125,-732 131,-738 131,-744 131,-744 131,-900 131,-900 131,-906 125,-912 119,-912 119,-912 36,-912 36,-912 30,-912 24,-906 24,-900 24,-900 24,-744 24,-744 24,-738 30,-732 36,-732"/>
<text text-anchor="middle" x="77.5" y="-899.2" font-family="Times,serif" font-size="11.00" fill="#c0c0c0">Calendar</text>
</g>
<!-- \\app\\models\\Utils -->
<g id="node1" class="node">
<title>\\app\\models\\Utils</title>
<polygon fill="none" stroke="#000000" points="291.6459,-1396 237.6459,-1396 237.6459,-1360 291.6459,-1360 291.6459,-1396"/>
<text text-anchor="middle" x="264.6459" y="-1375.2" font-family="Courier,monospace" font-size="11.00" fill="#000000">Utils</text>
</g>
<!-- \\KsUtils\\File\\Filter\\Extension -->
<g id="node2" class="node">
<title>\\KsUtils\\File\\Filter\\Extension</title>
<polygon fill="none" stroke="#000000" points="303.1459,-1154 226.1459,-1154 226.1459,-1118 303.1459,-1118 303.1459,-1154"/>
<text text-anchor="middle" x="264.6459" y="-1133.2" font-family="Courier,monospace" font-size="11.00" fill="#000000">Extension</text>
</g>
<!-- \\KsUtils\\File\\Filter -->
<g id="node7" class="node">
<title>\\KsUtils\\File\\Filter</title>
<polygon fill="none" stroke="#000000" points="106,-1154 49,-1154 49,-1118 106,-1118 106,-1154"/>
<text text-anchor="middle" x="77.5" y="-1133.2" font-family="Courier,monospace" font-size="11.00" fill="#000000">Filter</text>
</g>
<!-- \\KsUtils\\File\\Filter\\Extension&#45;&gt;\\KsUtils\\File\\Filter -->
<g id="edge1" class="edge">
<title>\\KsUtils\\File\\Filter\\Extension&#45;&gt;\\KsUtils\\File\\Filter</title>
<path fill="none" stroke="#000000" stroke-dasharray="1,5" d="M225.8692,-1136C193.8381,-1136 148.5805,-1136 116.4907,-1136"/>
<polygon fill="none" stroke="#000000" points="116.1511,-1132.5001 106.1511,-1136 116.151,-1139.5001 116.1511,-1132.5001"/>
</g>
<!-- \\KsUtils\\File\\OperationException -->
<g id="node3" class="node">
<title>\\KsUtils\\File\\OperationException</title>
<polygon fill="none" stroke="#000000" points="333.6459,-1280 195.6459,-1280 195.6459,-1244 333.6459,-1244 333.6459,-1280"/>
<text text-anchor="middle" x="264.6459" y="-1259.2" font-family="Courier,monospace" font-size="11.00" fill="#000000">OperationException</text>
</g>
<!-- Exception -->
<g id="node24" class="node">
<title>Exception</title>
<ellipse fill="none" stroke="#000000" cx="77.5" cy="-1362" rx="46.2923" ry="18"/>
<text text-anchor="middle" x="77.5" y="-1358.3" font-family="Times,serif" font-size="14.00" fill="#c0c0c0">Exception</text>
</g>
<!-- \\KsUtils\\File\\OperationException&#45;&gt;Exception -->
<g id="edge2" class="edge">
<title>\\KsUtils\\File\\OperationException&#45;&gt;Exception</title>
<path fill="none" stroke="#000000" d="M230.7552,-1280.1092C197.7309,-1297.7555 147.685,-1324.4972 113.847,-1342.5783"/>
<polygon fill="none" stroke="#000000" points="111.9307,-1339.6338 104.7603,-1347.4336 115.2297,-1345.8077 111.9307,-1339.6338"/>
</g>
<!-- \\KsUtils\\File\\ZipException -->
<g id="node4" class="node">
<title>\\KsUtils\\File\\ZipException</title>
<polygon fill="none" stroke="#000000" points="313.6459,-1226 215.6459,-1226 215.6459,-1190 313.6459,-1190 313.6459,-1226"/>
<text text-anchor="middle" x="264.6459" y="-1205.2" font-family="Courier,monospace" font-size="11.00" fill="#000000">ZipException</text>
</g>
<!-- \\KsUtils\\File\\ZipException&#45;&gt;Exception -->
<g id="edge3" class="edge">
<title>\\KsUtils\\File\\ZipException&#45;&gt;Exception</title>
<path fill="none" stroke="#000000" d="M215.2869,-1223.3164C208.342,-1226.5859 201.5638,-1230.4565 195.6459,-1235 161.947,-1260.8722 168.3064,-1281.2409 139,-1312 129.5628,-1321.905 118.1798,-1331.6579 107.7858,-1339.8828"/>
<polygon fill="none" stroke="#000000" points="105.4852,-1337.2375 99.7181,-1346.1253 109.7689,-1342.7738 105.4852,-1337.2375"/>
</g>
<!-- \\KsUtils\\File\\Dir -->
<g id="node5" class="node">
<title>\\KsUtils\\File\\Dir</title>
<polygon fill="none" stroke="#000000" points="291.6459,-1100 237.6459,-1100 237.6459,-1064 291.6459,-1064 291.6459,-1100"/>
<text text-anchor="middle" x="264.6459" y="-1079.2" font-family="Courier,monospace" font-size="11.00" fill="#000000">Dir</text>
</g>
<!-- \\KsUtils\\File\\Zip -->
<g id="node6" class="node">
<title>\\KsUtils\\File\\Zip</title>
<polygon fill="none" stroke="#000000" points="291.6459,-1046 237.6459,-1046 237.6459,-1010 291.6459,-1010 291.6459,-1046"/>
<text text-anchor="middle" x="264.6459" y="-1025.2" font-family="Courier,monospace" font-size="11.00" fill="#000000">Zip</text>
</g>
<!-- \\KsUtils\\File -->
<g id="node8" class="node">
<title>\\KsUtils\\File</title>
<polygon fill="none" stroke="#000000" points="291.6459,-992 237.6459,-992 237.6459,-956 291.6459,-956 291.6459,-992"/>
<text text-anchor="middle" x="264.6459" y="-971.2" font-family="Courier,monospace" font-size="11.00" fill="#000000">File</text>
</g>
<!-- \\Helpers\\Calendar\\ru\\Month -->
<g id="node9" class="node">
<title>\\Helpers\\Calendar\\ru\\Month</title>
<polygon fill="none" stroke="#000000" points="291.6459,-552 237.6459,-552 237.6459,-516 291.6459,-516 291.6459,-552"/>
<text text-anchor="middle" x="264.6459" y="-531.2" font-family="Courier,monospace" font-size="11.00" fill="#000000">Month</text>
</g>
<!-- \\Helpers\\Calendar\\Month -->
<g id="node11" class="node">
<title>\\Helpers\\Calendar\\Month</title>
<polygon fill="none" stroke="#000000" points="104.5,-552 50.5,-552 50.5,-516 104.5,-516 104.5,-552"/>
<text text-anchor="middle" x="77.5" y="-531.2" font-family="Courier,monospace" font-size="11.00" fill="#000000">Month</text>
</g>
<!-- \\Helpers\\Calendar\\ru\\Month&#45;&gt;\\Helpers\\Calendar\\Month -->
<g id="edge4" class="edge">
<title>\\Helpers\\Calendar\\ru\\Month&#45;&gt;\\Helpers\\Calendar\\Month</title>
<path fill="none" stroke="#000000" d="M237.4333,-534C205.1395,-534 151.1198,-534 114.9099,-534"/>
<polygon fill="none" stroke="#000000" points="114.7455,-530.5001 104.7455,-534 114.7454,-537.5001 114.7455,-530.5001"/>
</g>
<!-- \\Helpers\\Calendar\\Generator\\Workdays -->
<g id="node10" class="node">
<title>\\Helpers\\Calendar\\Generator\\Workdays</title>
<polygon fill="none" stroke="#000000" points="300.1459,-632 229.1459,-632 229.1459,-596 300.1459,-596 300.1459,-632"/>
<text text-anchor="middle" x="264.6459" y="-611.2" font-family="Courier,monospace" font-size="11.00" fill="#000000">Workdays</text>
</g>
<!-- \\kfilin\\Calendar\\GeneratorIf -->
<g id="node16" class="node">
<title>\\kfilin\\Calendar\\GeneratorIf</title>
<polygon fill="none" stroke="#000000" points="123,-776 32,-776 32,-740 123,-740 123,-776"/>
<text text-anchor="middle" x="77.5" y="-755.2" font-family="Courier,monospace" font-size="11.00" fill="#000000">GeneratorIf</text>
</g>
<!-- \\Helpers\\Calendar\\Generator\\Workdays&#45;&gt;\\kfilin\\Calendar\\GeneratorIf -->
<g id="edge5" class="edge">
<title>\\Helpers\\Calendar\\Generator\\Workdays&#45;&gt;\\kfilin\\Calendar\\GeneratorIf</title>
<path fill="none" stroke="#000000" stroke-dasharray="1,5" d="M240.9437,-632.2377C207.4765,-657.9892 146.3048,-705.058 109.0337,-733.7363"/>
<polygon fill="none" stroke="#000000" points="106.8007,-731.0382 101.0097,-739.9104 111.0695,-736.586 106.8007,-731.0382"/>
</g>
<!-- \\Helpers\\Dt\\Formatters\\Ru -->
<g id="node12" class="node">
<title>\\Helpers\\Dt\\Formatters\\Ru</title>
<polygon fill="none" stroke="#000000" points="291.6459,-436 237.6459,-436 237.6459,-400 291.6459,-400 291.6459,-436"/>
<text text-anchor="middle" x="264.6459" y="-415.2" font-family="Courier,monospace" font-size="11.00" fill="#000000">Ru</text>
</g>
<!-- \\Helpers\\Str -->
<g id="node13" class="node">
<title>\\Helpers\\Str</title>
<polygon fill="none" stroke="#000000" points="291.6459,-376 237.6459,-376 237.6459,-340 291.6459,-340 291.6459,-376"/>
<text text-anchor="middle" x="264.6459" y="-355.2" font-family="Courier,monospace" font-size="11.00" fill="#000000">Str</text>
</g>
<!-- \\kfilin\\Calendar\\Period -->
<g id="node14" class="node">
<title>\\kfilin\\Calendar\\Period</title>
<polygon fill="none" stroke="#000000" points="106,-884 49,-884 49,-848 106,-848 106,-884"/>
<text text-anchor="middle" x="77.5" y="-863.2" font-family="Courier,monospace" font-size="11.00" fill="#000000">Period</text>
</g>
<!-- \\kfilin\\Calendar\\Date -->
<g id="node15" class="node">
<title>\\kfilin\\Calendar\\Date</title>
<polygon fill="none" stroke="#000000" points="104.5,-830 50.5,-830 50.5,-794 104.5,-794 104.5,-830"/>
<text text-anchor="middle" x="77.5" y="-809.2" font-family="Courier,monospace" font-size="11.00" fill="#000000">Date</text>
</g>
<!-- \\Ru -->
<g id="node17" class="node">
<title>\\Ru</title>
<polygon fill="none" stroke="#000000" points="291.6459,-322 237.6459,-322 237.6459,-286 291.6459,-286 291.6459,-322"/>
<text text-anchor="middle" x="264.6459" y="-301.2" font-family="Courier,monospace" font-size="11.00" fill="#000000">Ru</text>
</g>
<!-- \\KsPaginator -->
<g id="node18" class="node">
<title>\\KsPaginator</title>
<polygon fill="none" stroke="#000000" points="310.1459,-268 219.1459,-268 219.1459,-232 310.1459,-232 310.1459,-268"/>
<text text-anchor="middle" x="264.6459" y="-247.2" font-family="Courier,monospace" font-size="11.00" fill="#000000">KsPaginator</text>
</g>
<!-- \\TreeNodeEmpty -->
<g id="node19" class="node">
<title>\\TreeNodeEmpty</title>
<polygon fill="none" stroke="#000000" points="316.6459,-214 212.6459,-214 212.6459,-178 316.6459,-178 316.6459,-214"/>
<text text-anchor="middle" x="264.6459" y="-193.2" font-family="Courier,monospace" font-size="11.00" fill="#000000">TreeNodeEmpty</text>
</g>
<!-- \\TreeNode -->
<g id="node20" class="node">
<title>\\TreeNode</title>
<polygon fill="none" stroke="#000000" points="113,-214 42,-214 42,-178 113,-178 113,-214"/>
<text text-anchor="middle" x="77.5" y="-193.2" font-family="Courier,monospace" font-size="11.00" fill="#000000">TreeNode</text>
</g>
<!-- \\TreeNodeEmpty&#45;&gt;\\TreeNode -->
<g id="edge6" class="edge">
<title>\\TreeNodeEmpty&#45;&gt;\\TreeNode</title>
<path fill="none" stroke="#000000" d="M212.5153,-196C184.5397,-196 150.3709,-196 123.4066,-196"/>
<polygon fill="none" stroke="#000000" points="123.0809,-192.5001 113.0809,-196 123.0808,-199.5001 123.0809,-192.5001"/>
</g>
<!-- \\TreeFabric -->
<g id="node21" class="node">
<title>\\TreeFabric</title>
<polygon fill="none" stroke="#000000" points="306.6459,-160 222.6459,-160 222.6459,-124 306.6459,-124 306.6459,-160"/>
<text text-anchor="middle" x="264.6459" y="-139.2" font-family="Courier,monospace" font-size="11.00" fill="#000000">TreeFabric</text>
</g>
<!-- \\Tree -->
<g id="node22" class="node">
<title>\\Tree</title>
<polygon fill="none" stroke="#000000" points="291.6459,-106 237.6459,-106 237.6459,-70 291.6459,-70 291.6459,-106"/>
<text text-anchor="middle" x="264.6459" y="-85.2" font-family="Courier,monospace" font-size="11.00" fill="#000000">Tree</text>
</g>
<!-- \\FilenameChanger -->
<g id="node23" class="node">
<title>\\FilenameChanger</title>
<polygon fill="none" stroke="#000000" points="323.6459,-52 205.6459,-52 205.6459,-16 323.6459,-16 323.6459,-52"/>
<text text-anchor="middle" x="264.6459" y="-31.2" font-family="Courier,monospace" font-size="11.00" fill="#000000">FilenameChanger</text>
</g>
</g>
</svg>
